<?xml version="1.0" encoding="UTF-8" standalone="no"?><!DOCTYPE svg PUBLIC "-//W3C//DTD SVG 1.1//EN" "http://www.w3.org/Graphics/SVG/1.1/DTD/svg11.dtd"><svg width="100%" height="100%" viewBox="0 0 1604 808" version="1.1" xmlns="http://www.w3.org/2000/svg" xmlns:xlink="http://www.w3.org/1999/xlink" xml:space="preserve" style="fill-rule:evenodd;clip-rule:evenodd;stroke-linecap:round;stroke-linejoin:round;stroke-miterlimit:1.5;"><g><path d="M1596.67,72.044c-0.93,-17.72 -0.56,-23.39 -18.26,-24.75c-48.8,-3.74 -150.59,0.62 -248.98,-0.82c-222.16,-3.24 -535.2,-7.15 -778.77,0.64c-195.87,6.27 -385.961,-4.32 -476.237,1.09c-17.718,1.06 -20.383,5.84 -21.364,23.57c-2.338,42.24 -9.983,148.47 -8.195,237.71c1.403,70.06 -4.308,139.43 -1.519,209.94c3.835,96.94 9.533,215.42 8.288,258.71c-0.678,23.57 7.028,19.77 24.772,20.21c87.89,2.2 274.765,10.56 477.185,8.28c215.7,-2.42 461.31,-13.09 662,-14.13c149.42,-0.77 290.88,10.15 360.6,8.41c17.75,-0.44 15.47,-1.41 16.41,-19.14c1.28,-24.39 0.01,-94.01 1.25,-137.82c3.46,-123.04 10.9,-289.17 8.88,-420.96c-0.77,-50.65 -4.67,-124.61 -6.06,-150.94Z" style="fill-opacity:0.14902;"/><path d="M1576.19,51.557c-0.93,-17.72 -0.56,-23.39 -18.26,-24.75c-48.8,-3.74 -150.59,0.62 -248.98,-0.82c-222.16,-3.24 -535.2,-7.15 -778.77,0.64c-195.87,6.27 -385.961,-4.32 -476.237,1.09c-17.718,1.06 -20.383,5.84 -21.364,23.57c-2.338,42.24 -9.983,148.47 -8.195,237.71c1.403,70.06 -4.308,139.43 -1.519,209.94c3.835,96.94 9.533,215.42 8.288,258.71c-0.678,23.57 7.028,19.77 24.772,20.21c87.89,2.2 274.765,10.56 477.185,8.28c215.7,-2.42 461.31,-13.09 662,-14.13c149.42,-0.77 290.88,10.15 360.6,8.41c17.75,-0.44 15.47,-1.41 16.41,-19.14c1.28,-24.39 0.01,-94.01 1.25,-137.82c3.46,-123.04 10.9,-289.17 8.88,-420.96c-0.77,-50.65 -4.67,-124.61 -6.06,-150.94Z" style="fill:#ffd951;"/><path d="M242.036,44.787c22.35,2.7 111.52,0.59 170.05,-0.11c33.54,-0.41 162.15,-4.32 276.38,-9.84c133.13,-6.43 243.56,-14.31 112.47,-10.11c-195.87,6.26 -656.721,-2.42 -746.997,2.99c-17.718,1.06 -20.383,5.84 -21.364,23.57c-2.338,42.24 -9.983,148.47 -8.195,237.71c1.403,70.06 -4.308,139.43 -1.519,209.94c3.835,96.94 15.647,-159.44 14.402,-116.15c-0.678,23.57 0.969,-153.92 1.764,-171.65c1.823,-40.66 6.525,-107.63 8.957,-149.84c0.399,-6.92 7.977,-12.66 15.157,-12.65c34.785,0.08 116.022,-11.45 178.895,-3.86Z" style="fill:#fff;fill-opacity:0.8;"/><path d="M932.127,776.85c-3.89,0.15 19.21,-22.47 26.08,-32.3c14.89,-21.31 49.72,-33.02 115.27,-36.74c23.72,-1.34 123.2,-12.75 142.82,-19.34c18.81,-6.32 79.84,-13.34 94.82,-27.53c14.98,-14.2 48.52,-17.67 60.09,-23.05c8.9,-4.15 24.66,-2.96 37.33,-12.95c18.09,-14.27 9.22,-30.26 26.57,-38.93c14.99,-7.5 37.82,-12.84 54.64,-17.84c13.44,-3.99 30.09,3.02 41.79,6.31c9.92,2.79 18.66,11.56 26.02,13.4c4.85,1.22 16.95,-1.85 16.86,0.4c-1.67,41.08 -1.66,82.74 -1.67,122.55c-0.01,12.63 0.4,38.45 -1.05,55.48c-0.96,11.27 2.44,14.75 -22.11,14.09c-29.48,-0.1 -78.21,-0.8 -108.67,-1.82c-53.79,-2.59 -107.94,-4.66 -162.78,-5.75c-46.92,-1.15 -296.58,2.15 -346.01,4.02Z" style="fill:#f5c448;stroke:#000;stroke-width:6px;"/><path d="M1576.19,51.557c-0.93,-17.72 -0.56,-23.39 -18.26,-24.75c-48.8,-3.74 -150.59,0.62 -248.98,-0.82c-222.16,-3.24 -535.2,-7.15 -778.77,0.64c-195.87,6.27 -385.961,-4.32 -476.237,1.09c-17.718,1.06 -20.383,5.84 -21.364,23.57c-2.338,42.24 -9.983,148.47 -8.195,237.71c1.403,70.06 -4.308,139.43 -1.519,209.94c3.835,96.94 9.533,215.42 8.288,258.71c-0.678,23.57 7.028,19.77 24.772,20.21c87.89,2.2 274.765,10.56 477.185,8.28c215.7,-2.42 461.31,-13.09 662,-14.13c149.42,-0.77 290.88,10.15 360.6,8.41c17.75,-0.44 15.47,-1.41 16.41,-19.14c1.28,-24.39 0.01,-94.01 1.25,-137.82c3.46,-123.04 10.9,-289.17 8.88,-420.96c-0.77,-50.65 -4.67,-124.61 -6.06,-150.94Z" style="fill:none;stroke:#000;stroke-width:6px;"/><path d="M191.094,104.855c1.118,1.554 2.53,2.119 4.323,1.396" style="fill:none;stroke:#000;stroke-width:6px;"/><path d="M890.109,113.426c1.049,-2.666 2.375,-3.635 4.058,-2.395" style="fill:none;stroke:#000;stroke-width:4.16px;"/><path d="M1529.17,436.566c2.658,4.743 2.378,8.471 -1.725,10.872" style="fill:none;stroke:#000;stroke-width:6px;"/><path d="M80.196,124.184c-2.471,3.904 -4.461,9.159 -5.823,16.162" style="fill:none;stroke:#000;stroke-width:4.16px;"/><path d="M68.925,243.537c2.199,4.252 2.068,6.737 -1.097,6.917" style="fill:none;stroke:#000;stroke-width:6px;"/><path d="M105.421,730.455c-11.943,-0.513 -16.53,-2.548 -11.537,-6.564" style="fill:none;stroke:#000;stroke-width:4.16px;"/></g></svg>
