<?xml version="1.0" encoding="UTF-8" standalone="no"?><!DOCTYPE svg PUBLIC "-//W3C//DTD SVG 1.1//EN" "http://www.w3.org/Graphics/SVG/1.1/DTD/svg11.dtd">
<svg id="svgroot" width="100%" height="100%" viewBox="0 0 577 150" version="1.1" xmlns="http://www.w3.org/2000/svg" xmlns:xlink="http://www.w3.org/1999/xlink" xml:space="preserve" style="fill-rule:evenodd;clip-rule:evenodd;stroke-linecap:round;stroke-linejoin:round;stroke-miterlimit:1.5;">
  <g>
    <path d="M573.781,60.464c-0.136,-0.989 -11.667,-19.112 -13.155,-20.547c-5.431,-5.239 -46.283,6.843 -81.127,6.312c-78.609,-1.198 -190.923,-2.822 -276.949,-0.207c-44.426,1.351 -136.383,-0.277 -168.351,0.456c-6.275,0.144 -6.142,0.957 -6.49,3.36c-0.827,5.725 -2.405,19.393 -1.772,31.49c0.497,9.496 -1.707,20.118 -0.72,29.676c0.79,7.641 -10.566,20.86 -5.917,25.796c3.991,4.236 12.273,8.201 14.262,9.538c3.357,2.259 1.768,1.932 8.052,1.992c31.124,0.298 94.599,2.037 166.232,0.984c79.171,-1.163 172.226,-2.128 240.256,-1.418c53.798,0.562 94.284,1.017 118.976,0.781c6.283,-0.06 5.479,-0.192 5.809,-2.595c0.455,-3.306 2.516,-25.513 2.953,-31.451c1.225,-16.68 -1.786,-19.688 -0.922,-37.554c0.349,-7.223 -0.647,-13.044 -1.137,-16.613l0,0Z" style="fill-opacity:0.14902;"/>
    <path d="M559.681,39.608c-0.327,-2.285 -0.197,-3.015 -6.397,-3.19c-17.095,-0.483 -52.94,0.228 -87.407,-0.277c-77.757,-1.139 -188.854,-2.683 -273.949,-0.196c-43.944,1.284 -134.906,-0.264 -166.528,0.433c-6.206,0.137 -6.075,0.91 -6.418,3.194c-0.819,5.444 -2.38,18.439 -1.754,29.941c0.491,9.029 -0.376,6.428 0.282,15.544c0.917,12.707 1.408,39.977 0.972,45.556c-0.237,3.038 2.462,2.548 8.677,2.605c30.787,0.283 99.151,1.937 170.008,0.936c78.314,-1.106 170.36,-2.023 237.654,-1.348c53.214,0.534 93.262,0.967 117.686,0.742c6.216,-0.057 5.42,-0.182 5.747,-2.467c0.449,-3.143 1.221,-24.801 1.653,-30.447c1.212,-15.858 -0.499,-24.587 0.356,-41.573c0.345,-6.868 -0.096,-16.06 -0.582,-19.453Z" style="fill:#c04d71;stroke:#000;stroke-width:6px;"/>
    <g id="top-layer">
      <path id="button-surface" d="M559.681,22.08c-0.327,-2.285 -0.197,-3.015 -6.397,-3.19c-17.095,-0.483 -52.94,0.228 -87.407,-0.277c-77.757,-1.139 -188.854,-2.683 -273.949,-0.196c-43.944,1.284 -134.906,-0.264 -166.528,0.433c-6.206,0.137 -6.075,0.91 -6.418,3.194c-0.819,5.444 -2.38,18.439 -1.754,29.941c0.491,9.029 -0.803,18.774 -0.712,28.216c0.122,12.565 2.402,27.304 1.966,32.884c-0.237,3.037 2.462,2.548 8.677,2.605c30.787,0.283 99.151,1.937 170.008,0.936c78.314,-1.106 170.36,-2.023 237.654,-1.348c53.214,0.534 93.262,0.967 117.686,0.742c6.216,-0.057 5.42,-0.182 5.747,-2.467c0.449,-3.144 3.134,-24.245 2.92,-29.904c-0.598,-15.858 -1.766,-25.13 -0.911,-42.116c0.345,-6.868 -0.096,-16.06 -0.582,-19.453l0,0Z"/>
      <path d="M102.64,30.441c17.359,0.188 45.108,-1.319 51.336,-1.503c17.096,-0.506 49.753,-1.069 80.76,-2.394c57.843,-2.473 195.39,-9.542 134.56,-9.461c-35.363,0.048 -146.085,0.568 -177.368,1.531c-43.944,1.353 -134.906,-0.278 -166.528,0.457c-6.206,0.144 -6.075,0.958 -6.418,3.364c-0.753,5.266 -0.627,17.273 -1.497,28.551c-0.077,1.003 -0.163,1.999 -0.257,2.984c-1.768,18.452 1.34,37.054 0.986,43.389c-0.106,1.91 6.187,-13.593 5.974,-19.894c-0.212,-6.275 2.244,-12.717 2.339,-13.723c0.226,-2.408 0.81,-7.53 1.137,-9.936c0.45,-3.311 1.354,-9.23 1.962,-15.174c0.892,-8.701 -0.981,-7.941 11.825,-8.138c24.746,-0.381 51.957,-0.152 61.189,-0.053l0,0Z" style="fill:#fff;fill-opacity:0.8;"/>
      <path d="M434.821,115.278c53.214,0.534 93.262,0.967 117.686,0.742c6.216,-0.057 6.325,-0.544 6.652,-2.829c0.449,-3.144 1.311,-24.06 1.291,-29.723c-0.055,-16.039 -1.042,-24.949 -0.187,-41.935c0.345,-6.868 -0.096,-16.06 -0.582,-19.453c-0.327,-2.285 -0.197,-3.015 -6.397,-3.19c-17.095,-0.483 -52.94,0.228 -87.407,-0.277c-77.757,-1.139 -188.854,-2.683 -273.949,-0.196c-43.944,1.284 -134.906,-0.264 -166.528,0.433c-6.206,0.137 -6.075,0.91 -6.418,3.194c-0.819,5.444 -2.38,18.439 -1.754,29.941c0.491,9.029 0.26,19.305 0.351,28.393c0.127,12.565 1.339,27.127 0.903,32.707c-0.237,3.037 2.462,2.548 8.677,2.605c30.787,0.283 99.151,1.937 170.008,0.936c19.405,-0.274 39.653,-0.536 60.159,-0.766l177.495,-0.582" style="fill:none;stroke:#000;stroke-width:6px;"/>      <path d="M120.599,47.852c0.961,-0.032 2.777,-0.268 1.183,0.294" style="fill:none;stroke:#000;stroke-width:6px;"/>
      <path d="M511.414,43.267c-0.062,0.841 0.635,1.402 2.523,1.521" style="fill:none;stroke:#000;stroke-width:6px;"/>
      <path d="M525.254,41.092c0.764,-0.1 0.834,0.334 0.683,0.939" style="fill:none;stroke:#000;stroke-width:6px;"/>
      <path d="M31.642,104.976c0.186,-1.336 0.905,-2.015 1.793,-2.484" style="fill:none;stroke:#000;stroke-width:6px;"/>
      <path d="M514.623,91.352l-0.219,1.206" style="fill:none;stroke:#000;stroke-width:6px;"/>
      <path d="M185.503,55.04c1.234,-0.449 2.506,-0.673 3.814,-0.673c0.337,0 0.692,0 1.066,0c1.683,0.187 3.141,0.692 4.375,1.514c1.272,0.823 1.72,1.702 1.346,2.637c-0.149,0.411 -0.355,0.635 -0.617,0.673c-0.299,0 -1.009,-0.206 -2.131,-0.617c-1.384,-0.449 -2.711,-0.673 -3.983,-0.673c-2.206,0 -3.945,1.009 -5.216,3.029c-1.234,1.982 -1.701,4.562 -1.402,7.74c0.187,2.319 0.467,4.001 0.841,5.048c0.337,1.047 0.916,2.001 1.739,2.861c1.084,1.047 2.225,1.645 3.421,1.795c0.823,0.187 1.478,0.187 1.964,0c0.448,-0.187 1.159,-0.654 2.131,-1.402c1.832,-1.346 3.048,-1.739 3.646,-1.178c0.224,0.187 0.337,0.43 0.337,0.729c-0.038,0.561 -0.43,1.346 -1.178,2.356c-1.683,2.206 -3.684,3.328 -6.002,3.365c-0.037,0 -0.075,0 -0.112,0c-2.281,0 -4.488,-1.047 -6.619,-3.141c-1.346,-1.346 -2.3,-2.917 -2.861,-4.711c-0.561,-1.795 -0.86,-4.151 -0.897,-7.068c-0.038,-0.411 -0.056,-0.785 -0.056,-1.122c0,-1.196 0.056,-2.113 0.168,-2.748c0.15,-0.786 0.486,-1.739 1.01,-2.861c0.748,-1.496 1.477,-2.636 2.187,-3.422c0.748,-0.822 1.758,-1.533 3.029,-2.131l0,0Z" style="fill-rule:nonzero;"/>
      <path d="M215.063,59.752c-0.972,-0.262 -1.888,-0.393 -2.748,-0.393c-1.945,0 -3.646,0.654 -5.104,1.963c-2.095,1.945 -3.16,4.787 -3.198,8.526c0,0.075 0,0.15 0,0.224c0,1.571 0.449,3.235 1.347,4.993c0.934,1.795 2,3.01 3.197,3.646c1.009,0.523 2.094,0.785 3.253,0.785c0.935,0 1.926,-0.168 2.973,-0.505c2.356,-0.748 3.982,-2.001 4.88,-3.758c0.486,-0.935 0.766,-2.487 0.841,-4.656c0,-0.336 0.019,-0.654 0.056,-0.953c0,-1.758 -0.187,-3.235 -0.561,-4.431c-0.411,-1.272 -1.084,-2.431 -2.019,-3.478c-0.935,-1.047 -1.907,-1.702 -2.917,-1.963l0,0Zm9.087,14.696c-0.895,3.365 -2.947,5.852 -6.155,7.46c-1.866,0.935 -3.824,1.402 -5.876,1.402c-1.492,0 -3.04,-0.262 -4.645,-0.785c-2.052,-0.599 -4.01,-2.711 -5.875,-6.339c-0.597,-1.159 -0.97,-2.112 -1.119,-2.86c-0.15,-0.748 -0.225,-1.851 -0.225,-3.31c0,-2.094 0.15,-3.776 0.449,-5.048c0.336,-1.271 0.953,-2.58 1.851,-3.926c0.897,-1.384 1.739,-2.412 2.524,-3.085c0.748,-0.636 1.683,-1.178 2.805,-1.627c1.121,-0.411 2.542,-0.636 4.263,-0.673c0.187,0 0.373,0 0.56,0c1.496,0 2.805,0.15 3.927,0.449c1.421,0.411 2.804,1.383 4.151,2.917c1.326,1.495 2.284,3.178 2.873,5.048c0.479,1.682 0.755,3.496 0.829,5.441c0.037,0.448 0.056,0.878 0.056,1.29c0,1.421 -0.131,2.636 -0.393,3.646l0,0Z" style="fill-rule:nonzero;"/>
      <path d="M229.423,82.244c-0.823,0 -1.328,-1.29 -1.515,-3.87c-0.037,-0.561 -0.056,-1.141 -0.056,-1.739c0,-2.206 0.243,-4.693 0.729,-7.46c0.449,-3.066 0.673,-5.796 0.673,-8.189c0,-1.982 0.056,-3.16 0.169,-3.534c0.074,-0.374 0.43,-0.636 1.065,-0.785c0.487,-0.15 0.917,-0.113 1.291,0.112c0.411,0.262 1.009,0.823 1.794,1.683c0.674,0.785 2.543,2.879 5.61,6.282c3.103,3.403 5.235,5.759 6.394,7.067c0.299,-9.872 0.561,-15.238 0.785,-16.098c0.262,-0.336 0.767,-0.523 1.515,-0.561c0,0 0.018,0 0.056,0c0.71,0 1.178,0.168 1.402,0.505c0.112,0.337 0.224,2.318 0.337,5.946c0.112,3.664 0.187,7.366 0.224,11.106c0.075,3.739 0.131,5.777 0.168,6.114c0.038,0.411 0.056,0.766 0.056,1.065c0,0.449 -0.037,0.73 -0.112,0.842c-0.112,0.262 -0.467,0.43 -1.066,0.505c-0.523,0.037 -0.953,-0.075 -1.29,-0.337c-0.336,-0.262 -0.841,-0.823 -1.514,-1.683c-3.403,-4.936 -7.759,-10.115 -13.069,-15.537c-0.113,0.898 -0.318,2.319 -0.617,4.263c-0.3,1.907 -0.561,3.665 -0.786,5.273c-0.187,1.608 -0.318,2.935 -0.392,3.982c-0.187,1.907 -0.412,3.235 -0.673,3.983c-0.262,0.71 -0.655,1.065 -1.178,1.065l0,0Z" style="fill-rule:nonzero;"/>
      <path d="M261.226,67.997c0,-3.777 -0.13,-5.964 -0.392,-6.563c-0.225,-0.523 -0.916,-0.785 -2.076,-0.785c-0.074,0 -0.411,0 -1.009,0c-0.972,0 -1.851,-0.149 -2.637,-0.449c-0.747,-0.261 -1.215,-0.635 -1.402,-1.121c-0.075,-0.15 -0.112,-0.3 -0.112,-0.449c0,-0.337 0.112,-0.655 0.337,-0.954c0.374,-0.448 3.577,-0.673 9.611,-0.673c6.082,0 9.31,0.243 9.684,0.729c0.299,0.374 0.449,0.73 0.449,1.066c0,0.598 -0.543,1.122 -1.627,1.571c-1.122,0.411 -2.599,0.635 -4.431,0.673c-0.598,0 -1.515,0 -2.749,0c-0.036,4.749 0.132,9.517 0.505,14.303c0.262,3.216 0.243,5.104 -0.056,5.665c-0.299,0.524 -0.799,0.786 -1.499,0.786c-0.699,0 -1.214,-0.262 -1.546,-0.786c-0.7,-1.383 -1.05,-5.721 -1.05,-13.013l0,0Z" style="fill-rule:nonzero;"/>
      <path d="M289.609,60.817c0,-0.486 -0.075,-0.729 -0.225,-0.729c-0.224,0 -0.617,0.58 -1.178,1.739c-0.261,0.486 -0.523,1.047 -0.785,1.683c-1.159,2.804 -1.739,4.45 -1.739,4.936c0,0.037 0,0.056 0,0.056c0.075,0.299 0.561,0.505 1.459,0.617c1.495,0.187 2.954,0.28 4.375,0.28c0.261,0 0.505,0 0.729,0c-0.075,-0.224 -0.374,-1.084 -0.898,-2.58c-0.523,-1.496 -0.953,-2.767 -1.29,-3.814c-0.299,-1.084 -0.448,-1.814 -0.448,-2.188l0,0Zm-1.29,-6.731c0.336,-0.186 0.635,-0.28 0.897,-0.28c0.075,0 0.131,0 0.168,0c0.299,0.075 0.729,0.411 1.29,1.01c0.748,0.748 1.421,2.337 2.02,4.767c0.822,2.73 1.738,5.46 2.748,8.19c1.982,5.048 3.16,8.507 3.534,10.377c0.112,0.561 0.168,1.047 0.168,1.458c0,0.935 -0.336,1.477 -1.01,1.627c-0.635,0.149 -1.159,-0.056 -1.57,-0.617c-0.374,-0.561 -0.86,-1.758 -1.458,-3.59c-0.225,-0.748 -0.58,-1.889 -1.066,-3.422c-3.74,-0.262 -7.124,-0.617 -10.153,-1.065c-0.411,0.86 -1.028,2.168 -1.851,3.926c-0.935,2.057 -1.72,3.478 -2.356,4.263c-0.486,0.673 -0.972,1.009 -1.458,1.009c-0.112,0 -0.224,-0.018 -0.336,-0.056c-0.412,-0.224 -0.617,-0.598 -0.617,-1.121c0,-0.113 0,-0.225 0,-0.337c0.112,-0.673 0.467,-1.814 1.065,-3.422c0.225,-0.56 0.767,-1.888 1.627,-3.982c0.823,-2.132 1.608,-4.113 2.356,-5.946c0.748,-1.869 1.57,-3.814 2.468,-5.833c0.86,-2.019 1.608,-3.665 2.243,-4.936c0.636,-1.272 1.066,-1.945 1.291,-2.02l0,0Z" style="fill-rule:nonzero;"/>
      <path d="M309.072,55.04c1.234,-0.449 2.506,-0.673 3.815,-0.673c0.336,0 0.691,0 1.065,0c1.683,0.187 3.141,0.692 4.375,1.514c1.272,0.823 1.72,1.702 1.347,2.637c-0.15,0.411 -0.356,0.635 -0.617,0.673c-0.3,0 -1.01,-0.206 -2.132,-0.617c-1.384,-0.449 -2.711,-0.673 -3.982,-0.673c-2.207,0 -3.945,1.009 -5.217,3.029c-1.234,1.982 -1.701,4.562 -1.402,7.74c0.187,2.319 0.467,4.001 0.841,5.048c0.337,1.047 0.916,2.001 1.739,2.861c1.084,1.047 2.225,1.645 3.422,1.795c0.822,0.187 1.477,0.187 1.963,0c0.449,-0.187 1.159,-0.654 2.131,-1.402c1.833,-1.346 3.048,-1.739 3.646,-1.178c0.225,0.187 0.337,0.43 0.337,0.729c-0.038,0.561 -0.43,1.346 -1.178,2.356c-1.683,2.206 -3.684,3.328 -6.002,3.365c-0.037,0 -0.075,0 -0.112,0c-2.281,0 -4.487,-1.047 -6.619,-3.141c-1.346,-1.346 -2.3,-2.917 -2.861,-4.711c-0.56,-1.795 -0.86,-4.151 -0.897,-7.068c-0.037,-0.411 -0.056,-0.785 -0.056,-1.122c0,-1.196 0.056,-2.113 0.168,-2.748c0.15,-0.786 0.486,-1.739 1.01,-2.861c0.748,-1.496 1.477,-2.636 2.187,-3.422c0.748,-0.822 1.758,-1.533 3.029,-2.131l0,0Z" style="fill-rule:nonzero;"/>
      <path d="M331.284,67.997c0,-3.777 -0.13,-5.964 -0.392,-6.563c-0.225,-0.523 -0.916,-0.785 -2.076,-0.785c-0.074,0 -0.411,0 -1.009,0c-0.972,0 -1.851,-0.149 -2.637,-0.449c-0.747,-0.261 -1.215,-0.635 -1.402,-1.121c-0.075,-0.15 -0.112,-0.3 -0.112,-0.449c0,-0.337 0.112,-0.655 0.337,-0.954c0.374,-0.448 3.577,-0.673 9.611,-0.673c6.082,0 9.31,0.243 9.684,0.729c0.299,0.374 0.449,0.73 0.449,1.066c0,0.598 -0.543,1.122 -1.627,1.571c-1.122,0.411 -2.599,0.635 -4.431,0.673c-0.598,0 -1.515,0 -2.749,0c-0.036,4.749 0.132,9.517 0.505,14.303c0.262,3.216 0.243,5.104 -0.056,5.665c-0.299,0.524 -0.799,0.786 -1.499,0.786c-0.699,0 -1.214,-0.262 -1.546,-0.786c-0.7,-1.383 -1.05,-5.721 -1.05,-13.013l0,0Z" style="fill-rule:nonzero;"/>
      <path d="M364.771,55.601c0.71,0 1.907,1.178 3.59,3.534c1.683,2.393 3.664,5.702 5.945,9.928c0.524,1.009 1.347,2.524 2.468,4.543c0.524,-1.196 1.571,-3.608 3.142,-7.236c1.757,-4.038 3.085,-6.768 3.982,-8.189c0.898,-1.421 1.776,-2.131 2.636,-2.131c0.748,0 1.216,0.187 1.403,0.561c0.897,1.383 1.551,6.861 1.963,16.434c0.149,3.403 0.224,5.684 0.224,6.843c0,0.262 0,0.449 0,0.561c-0.037,0.898 -0.262,1.534 -0.673,1.907c-0.411,0.337 -0.804,0.505 -1.178,0.505c-0.224,0 -0.449,-0.056 -0.673,-0.168c-0.561,-0.299 -0.916,-0.935 -1.066,-1.907c-0.112,-0.935 -0.261,-3.627 -0.448,-8.077c-0.15,-4.936 -0.337,-7.647 -0.561,-8.133c-0.15,-0.225 -0.543,0.243 -1.178,1.402c-1.72,3.178 -3.272,6.918 -4.656,11.218c-0.523,1.608 -1.084,2.767 -1.683,3.478c-0.598,0.71 -1.196,0.897 -1.794,0.561c-0.561,-0.374 -1.047,-1.216 -1.459,-2.524c-0.262,-0.973 -1.439,-3.478 -3.534,-7.517c-2.094,-4.038 -3.421,-6.413 -3.982,-7.123c-0.337,-0.374 -0.542,-0.281 -0.617,0.28c-0.075,0.711 -0.037,3.328 0.112,7.853c0.112,3.964 0.15,6.488 0.112,7.572c-0.074,1.047 -0.261,1.72 -0.561,2.02c-0.299,0.261 -0.542,0.374 -0.729,0.336c-0.187,-0.037 -0.467,-0.243 -0.841,-0.617c-0.636,-0.636 -1.103,-2.113 -1.402,-4.431c-0.262,-2.319 -0.43,-6.058 -0.505,-11.218c-0.038,-1.234 -0.056,-2.356 -0.056,-3.366c0,-3.702 0.168,-5.74 0.504,-6.114c0.412,-0.523 0.917,-0.785 1.515,-0.785l0,0Z" style="fill-rule:nonzero;"/>
      <path d="M412.28,55.489c0,0.897 -0.505,1.496 -1.514,1.795c-1.01,0.299 -3.31,0.486 -6.899,0.561c-1.496,0.037 -3.759,0.093 -6.787,0.168c0.244,4.674 0.471,7.348 0.681,8.021c0.106,0.411 1.487,0.617 4.142,0.617c4.263,0 6.47,0.636 6.619,1.907c0.038,0.486 -0.224,0.991 -0.785,1.514c-0.374,0.337 -0.842,0.543 -1.402,0.617c-0.599,0.075 -1.926,0.038 -3.983,-0.112c-1.01,-0.074 -2.505,-0.187 -4.487,-0.336c0.149,4.973 0.374,7.684 0.673,8.133c0,0.187 2.225,0.206 6.675,0.056c4.487,-0.112 7.011,0.224 7.572,1.01c0.337,0.448 0.505,0.916 0.505,1.402c0,0.337 -0.075,0.673 -0.224,1.01c-0.374,0.935 -1.496,1.383 -3.366,1.346c-1.87,0 -3.534,0.037 -4.992,0.112c-1.084,0.037 -2.057,0.056 -2.917,0.056c-3.021,0 -4.863,-0.318 -5.524,-0.953c-0.918,-0.3 -1.414,-1.291 -1.487,-2.973c-0.075,-0.412 -0.15,-1.253 -0.225,-2.524c-0.747,-10.583 -1.121,-17.276 -1.121,-20.081c0,-0.785 0.037,-1.253 0.112,-1.402c0.224,-0.524 0.654,-0.935 1.29,-1.234c0.336,-0.113 1.851,-0.169 4.543,-0.169c1.047,0 2.3,0 3.758,0c5.049,0.075 7.891,0.225 8.526,0.449c0.412,0.187 0.617,0.524 0.617,1.01l0,0Z" style="fill-rule:nonzero;"/>
    </g>
  </g>#ff7d66
  <style>
    svg {
      cursor: pointer;
    }
    #button-surface {
      fill: rgb(255,125,102);
      cursor: pointer;
    }
    svg:hover #button-surface {
      fill: rgb(255,173,158);
    }
  </style>

  <script>
		document.getElementById("svgroot").addEventListener("click", toggleDropdown, false);

		function toggleDropdown()
		{
      if (window.parent.showContactDropdown)
				window.parent.showContactDropdown();
		}
	</script>
</svg>
