<?xml version="1.0" encoding="UTF-8" standalone="no"?><!DOCTYPE svg PUBLIC "-//W3C//DTD SVG 1.1//EN" "http://www.w3.org/Graphics/SVG/1.1/DTD/svg11.dtd"><svg width="100%" height="100%" viewBox="0 0 377 377" version="1.1" xmlns="http://www.w3.org/2000/svg" xmlns:xlink="http://www.w3.org/1999/xlink" xml:space="preserve" style="fill-rule:evenodd;clip-rule:evenodd;stroke-linecap:round;stroke-linejoin:round;stroke-miterlimit:1.5;"><g><path d="M220.086,30.507c34.357,0 62.748,14.62 88.823,33.19c31.37,22.34 42.72,41.52 55.56,76.72c6.9,18.89 11.68,35.76 11.68,57.45c0,39.44 -5.92,73.93 -22.84,106.35c-8.93,17.12 -24.53,33.78 -38.68,44.02c-24,17.36 -56.969,28.51 -92.84,28.51c-52.881,0 -104.399,-2.03 -137.726,-38.65c-12.796,-14.06 -30.132,-37.64 -38.892,-58.02c-28.635,-66.65 -8.84,-129.42 -0.523,-145.88c10.076,-19.95 29.457,-48.09 47.6,-63.87c33.195,-28.86 78.892,-39.82 127.838,-39.82l0,0Z" style="fill-opacity:0.14902;"/><path d="M203.955,13.08c34.357,0 62.748,14.62 88.823,33.19c31.37,22.34 42.72,41.52 55.56,76.72c6.9,18.89 11.68,35.76 11.68,57.45c0,39.44 -5.92,73.93 -22.84,106.35c-8.93,17.12 -24.53,33.78 -38.68,44.02c-24,17.36 -56.969,28.51 -92.84,28.51c-52.881,0 -104.399,-2.03 -137.726,-38.65c-12.796,-14.06 -30.132,-37.64 -38.892,-58.02c-28.635,-66.65 -8.84,-129.42 -0.523,-145.88c10.076,-19.95 29.457,-48.09 47.6,-63.87c33.195,-28.86 78.892,-39.82 127.838,-39.82l0,0Z" style="fill:#ff6e55;"/><path d="M203.955,13.08c34.357,0 -16.719,4.79 -47.616,13.18c-28.671,7.78 -25.334,5.79 -56.625,26.38c-18.575,12.23 -17.455,17.09 -31.985,33.2c-22.437,24.89 -25.327,37.54 -31.934,51.77c-8.13,17.52 -5.991,26.04 -10.787,45.85c-5.39,22.25 12.504,98.9 4.032,79.19c-28.635,-66.65 -8.84,-129.42 -0.523,-145.88c10.076,-19.95 29.457,-48.09 47.6,-63.87c33.195,-28.86 78.892,-39.82 127.838,-39.82l0,0Z" style="fill:#fff;fill-opacity:0.8;"/><path d="M304.828,325.89c-12.28,10.23 -26.83,18.29 -43.756,24.18c-16.931,5.9 -35.736,9.25 -55.414,9.25c-52.881,0 -104.399,-2.03 -137.726,-38.65c-12.796,-14.06 -30.132,-37.64 -38.892,-58.02c-28.635,-66.65 -8.84,-129.42 -0.523,-145.88c10.076,-19.95 29.457,-48.09 47.6,-63.87c33.195,-28.86 78.892,-39.82 127.838,-39.82c34.357,0 62.748,14.62 88.823,33.19c31.37,22.34 42.72,41.52 55.56,76.72c6.9,18.89 11.68,35.76 11.68,57.45c0,39.44 -5.92,73.93 -22.84,106.35c-7.61,14.6 -20.07,28.86 -32.35,39.1l0,0Z" style="fill:none;stroke:#000;stroke-width:6px;"/><path d="M40.9,284.8c-1.28,-2.17 12.34,1.11 18.37,4.11c6.03,3.01 10.93,10.94 15.96,16.81c5.04,5.88 24.81,17.26 31.58,21.1c28.27,16.01 41.02,14.93 77.08,13.8c10.19,-0.32 11.5,4.36 20.69,5.47c8.81,1.06 12.48,-2.57 19.94,-1.39c5.73,0.91 16.88,10.5 11.1,11.99c-13.3,3.42 -40.98,3.12 -75.03,1.42c-29.68,-3.62 -52.79,-3.36 -82.98,-27.97c-13.22,-11.94 -25.62,-26.5 -36.71,-45.34l0,0Z" style="fill:#da3b37;stroke:#000;stroke-width:6px;"/><path d="M42.381,194.976c0.962,-2.933 -1.161,-5.138 1.774,-6.526" style="fill:none;stroke:#000;stroke-width:6px;"/><path d="M55.105,245.074c-2.857,-1.343 -3.097,-4.498 -6.11,-3.264" style="fill:none;stroke:#000;stroke-width:6px;"/><path d="M210.959,44.666c1.566,-0.358 1.926,-1.889 3.379,-0.959" style="fill:none;stroke:#000;stroke-width:6px;"/><path d="M235.641,45.046c0.173,-0.175 0.451,-0.275 0.404,-0.384" style="fill:none;stroke:#000;stroke-width:6px;"/><path d="M206.293,198.328c0.563,-2.438 0.844,-4.314 0.844,-5.626c0.188,-1.313 0.281,-2.439 0.281,-3.376c0,-0.188 0,-0.375 0,-0.563c0,-0.75 -0.375,-1.219 -1.125,-1.407c-0.938,-0.375 -1.782,-0.562 -2.532,-0.562c-0.75,-0.188 -2.25,-0.375 -4.501,-0.563c-2.251,-0.187 -4.22,-0.375 -5.908,-0.563c-2.813,-0.187 -5.157,-0.281 -7.033,-0.281c-2.626,0 -4.314,0.281 -5.064,0.844c-1.313,1.125 -2.813,5.908 -4.501,14.348c-0.375,1.875 -0.938,4.501 -1.688,7.877c4.876,-0.188 14.629,-0.751 29.258,-1.688c0.187,-1.313 0.844,-4.126 1.969,-8.44Zm25.319,-29.539c1.501,0 4.408,0 8.721,0c5.627,0 10.222,0.857 13.785,2.571c2.813,1.527 4.126,3.529 3.939,6.005c0,0.574 0,1.242 0,2.004c-0.75,2.67 -1.876,4.386 -3.376,5.148c-1.501,0.762 -3.564,1.333 -6.189,1.714c-2.438,0.188 -4.877,0.375 -7.315,0.563c-2.438,0.187 -5.064,0.375 -7.877,0.562c-2.813,0 -4.97,0.094 -6.47,0.282c-0.375,2.25 -1.126,5.532 -2.251,9.846c-1.125,4.501 -1.875,7.877 -2.25,10.128c2.813,0.375 7.126,0.937 12.94,1.688c14.067,1.5 21.1,4.876 21.1,10.127c0,2.814 -1.501,4.97 -4.501,6.471c-3.001,1.313 -9.003,2.157 -18.005,2.532c-3.564,-0.375 -8.815,-0.844 -15.754,-1.407c-0.751,2.813 -2.251,8.534 -4.502,17.161c-2.063,8.815 -4.126,14.535 -6.189,17.161c-2.063,2.625 -4.782,3.938 -8.158,3.938c-4.501,-0.938 -5.064,-10.596 -1.688,-28.976c0.375,-2.063 0.938,-5.252 1.688,-9.565c-2.251,0 -6.939,0 -14.066,0c-7.69,0 -12.191,0.656 -13.504,1.969c-1.125,1.5 -2.25,7.502 -3.376,18.005c-1.5,11.253 -5.532,16.879 -12.097,16.879c-4.313,0 -6.751,-1.969 -7.314,-5.908c-0.375,-3.751 0.469,-12.753 2.532,-27.007c0.375,-2.625 0.187,-4.595 -0.563,-5.908c-0.938,-1.312 -3.469,-2.719 -7.596,-4.219c-6.001,-2.439 -9.002,-5.533 -9.002,-9.284c0,-1.5 0.844,-2.72 2.532,-3.657c1.688,-0.938 4.689,-1.501 9.002,-1.688c5.439,0 8.815,-0.375 10.128,-1.126c1.125,-0.75 2.251,-3.282 3.376,-7.595c1.688,-6.189 2.25,-9.753 1.688,-10.691c-0.563,-0.937 -3.282,-1.406 -8.159,-1.406c-10.877,0 -16.316,-2.003 -16.316,-6.009c0,-2.289 1.594,-4.197 4.782,-5.723c3.376,-1.527 7.408,-2.29 12.097,-2.29c3.939,0 7.127,-0.859 9.565,-2.576c2.438,-1.674 4.408,-3.905 5.908,-6.695c1.313,-2.79 3.188,-7.719 5.626,-14.787c3.189,-7.997 6.377,-11.996 9.565,-11.996c0.188,0 0.376,0 0.563,0c3.564,0.557 4.689,6.044 3.376,16.462c-0.375,2.79 -0.938,5.673 -1.688,8.651c-0.375,2.045 -1.031,5.021 -1.969,8.927c4.876,-0.375 14.535,-0.937 28.976,-1.688c0.563,-1.688 1.501,-5.063 2.813,-10.127c1.876,-7.315 3.751,-12.566 5.627,-15.754c1.875,-3.376 4.032,-4.877 6.47,-4.502c1.501,0.188 2.438,1.219 2.814,3.095c0.375,2.063 0.562,6.47 0.562,13.222c0,3.376 0,8.534 0,15.473Z" style="fill-opacity:0.8;fill-rule:nonzero;"/></g></svg>
