<?xml version="1.0" encoding="UTF-8" standalone="no"?><!DOCTYPE svg PUBLIC "-//W3C//DTD SVG 1.1//EN" "http://www.w3.org/Graphics/SVG/1.1/DTD/svg11.dtd"><svg width="100%" height="100%" viewBox="0 0 924 227" version="1.1" xmlns="http://www.w3.org/2000/svg" xmlns:xlink="http://www.w3.org/1999/xlink" xml:space="preserve" style="fill-rule:evenodd;clip-rule:evenodd;stroke-linecap:round;stroke-linejoin:round;stroke-miterlimit:1.5;"><g><path d="M923.185,50.849c-0.527,-4.274 -3.091,-4.932 -13.132,-5.26c-27.682,-0.902 -179.199,-0.793 -241.666,-1.613c-47.253,-0.617 -87.642,-0.814 -126.959,-0.723c-19.644,0.048 -48.859,-13.781 -59.166,-13.614c-11.317,0.183 -33.792,14.296 -51.785,14.518c-31.336,0.388 -65.031,0.868 -103.43,1.389c-111.11,1.511 -218.941,-1.042 -270.152,0.262c-10.05,0.256 -13.651,-0.699 -14.207,3.573c-1.327,10.182 -0.181,37.676 -0.472,59.187c-0.229,16.89 -1.921,33.72 -0.339,50.717c2.175,23.367 1.752,50.929 1.046,61.364c-0.385,5.679 26.643,4.406 36.704,4.577c128.55,2.201 253.014,-0.665 367.839,-1.212c122.359,-0.584 165.318,0.455 279.162,0.205c84.755,-0.188 143.2,1.945 182.756,1.525c10.063,-0.106 8.775,-6.597 9.303,-10.871c0.732,-5.879 2.138,-32.537 2.348,-43.1c0.301,-14.805 1.186,-58.666 0.596,-71.104c-0.579,-12.207 2.343,-43.474 1.554,-49.82Z" style="fill-opacity:0.14902;"/><path d="M904.057,41.802c-0.528,-3.973 -3.092,-4.585 -13.132,-4.89c-27.683,-0.838 -179.199,-0.737 -241.666,-1.499c-47.253,-0.574 -104.479,-0.758 -143.796,-0.673c-19.644,0.045 -35.397,-12.76 -42.329,-12.657c-6.927,0.105 -22.243,13.148 -40.236,13.354c-31.336,0.359 -76.581,0.95 -114.979,1.435c-111.11,1.405 -218.942,-0.969 -270.152,0.244c-10.051,0.237 -13.652,-0.65 -14.208,3.321c-1.326,9.467 -0.18,35.028 -0.471,55.028c-0.229,15.703 -1.922,31.35 -0.339,47.152c2.175,21.726 1.752,47.35 1.046,57.052c-0.385,5.28 26.643,4.097 36.704,4.256c128.55,2.046 253.013,-0.619 367.839,-1.128c122.359,-0.542 165.318,0.424 279.162,0.191c84.755,-0.175 143.2,1.808 182.755,1.418c10.063,-0.098 8.776,-6.133 9.303,-10.107c0.732,-5.466 2.139,-30.25 2.349,-40.071c0.3,-13.764 1.185,-54.543 0.595,-66.107c-0.578,-11.349 2.343,-40.418 1.555,-46.319Z" style="fill:#ffd951;stroke:#000;stroke-width:4.17px;"/><path d="M248.566,48.209c9.173,-0.363 166.316,-3.886 176.357,-3.805c23.808,0.19 39.425,-22.653 38.211,-22.321c-6.677,1.842 -22.243,13.148 -40.236,13.354c-31.336,0.359 -76.581,0.95 -114.979,1.435c-111.11,1.405 -218.942,-0.969 -270.152,0.244c-10.051,0.237 -13.652,-0.65 -14.208,3.321c-1.326,9.467 -0.18,35.028 -0.471,55.028c-0.229,15.703 -1.922,31.35 -0.339,47.152c2.175,21.726 1.752,47.35 1.046,57.052c-0.385,5.28 6.748,-16.752 6.981,-24.755c0.236,-8.03 3.465,-32.931 3.258,-36.754c-0.299,-5.506 0.569,-10.462 0.782,-20.282c0.298,-13.765 -0.14,-66.569 1.954,-68.465c4.267,-3.868 205.846,-0.968 211.796,-1.204Z" style="fill:#fff;"/><path d="M904.057,41.802c-0.528,-3.973 -3.092,-4.585 -13.132,-4.89c-27.683,-0.838 -179.199,-0.737 -241.666,-1.499c-47.253,-0.574 -104.479,-0.758 -143.796,-0.673c-19.644,0.045 -35.397,-12.76 -42.329,-12.657c-6.927,0.105 -22.243,13.148 -40.236,13.354c-31.336,0.359 -76.581,0.95 -114.979,1.435c-111.11,1.405 -218.942,-0.969 -270.152,0.244c-10.051,0.237 -13.652,-0.65 -14.208,3.321c-1.326,9.467 -0.18,35.028 -0.471,55.028c-0.229,15.703 -1.922,31.35 -0.339,47.152c2.175,21.726 1.752,47.35 1.046,57.052c-0.385,5.28 26.643,4.097 36.704,4.256c128.55,2.046 253.013,-0.619 367.839,-1.128c122.359,-0.542 165.318,0.424 279.162,0.191c84.755,-0.175 143.2,1.808 182.755,1.418c10.063,-0.098 8.776,-6.133 9.303,-10.107c0.732,-5.466 2.139,-30.25 2.349,-40.071c0.3,-13.764 1.185,-54.543 0.595,-66.107c-0.578,-11.349 2.343,-40.418 1.555,-46.319Z" style="fill:none;stroke:#000;stroke-width:4.17px;"/><path d="M453.995,70.118c0.635,0.348 1.436,0.475 2.453,0.313" style="fill:none;stroke:#000;stroke-width:4.17px;"/><path d="M544.651,190.18c0.595,-0.598 1.347,-0.815 2.302,-0.537" style="fill:none;stroke:#000;stroke-width:4.17px;"/><path d="M688.304,189.522c1.507,1.063 1.349,1.898 -0.979,2.437" style="fill:none;stroke:#000;stroke-width:4.17px;"/><path d="M862.879,55.523c-1.402,0.876 -2.531,2.053 -3.303,3.623" style="fill:none;stroke:#000;stroke-width:4.17px;"/><path d="M70.687,166.881c1.248,0.953 1.173,1.51 -0.622,1.55" style="fill:none;stroke:#000;stroke-width:4.17px;"/><path d="M332.87,177.421c-6.775,-0.115 -9.377,-0.571 -6.544,-1.471" style="fill:none;stroke:#000;stroke-width:4.17px;"/></g></svg>