<?xml version="1.0" encoding="UTF-8" standalone="no"?><!DOCTYPE svg PUBLIC "-//W3C//DTD SVG 1.1//EN" "http://www.w3.org/Graphics/SVG/1.1/DTD/svg11.dtd"><svg width="100%" height="100%" viewBox="0 0 381 375" version="1.1" xmlns="http://www.w3.org/2000/svg" xmlns:xlink="http://www.w3.org/1999/xlink" xml:space="preserve" style="fill-rule:evenodd;clip-rule:evenodd;stroke-linecap:round;stroke-linejoin:round;stroke-miterlimit:1.5;"><g><path d="M77.183,86.218c37.556,-42.39 80.845,-59.71 131.695,-54.45c32,3.32 75.027,18.43 96.304,32.9c31.84,21.66 53.66,53.52 66.5,88.71c6.9,18.9 11.16,51.23 8.51,72.76c-5.08,41.35 -10.38,58.52 -31.53,87.65c-11.34,15.63 -37.85,33.72 -53.91,42.05c-26.294,13.64 -64.311,25.56 -130.568,12.65c-38.931,-7.59 -51.354,-19.05 -84.681,-47.4c-14.479,-12.32 -27.64,-31.78 -36.539,-52.1c-10.206,-23.31 -9.713,-44.67 -8.946,-67.94c0.688,-20.88 9.094,-49.56 14.695,-66.71c6.941,-21.24 12.525,-30.13 28.47,-48.12l0,0Z" style="fill-opacity:0.14902;"/><path d="M58.601,70.45c37.556,-42.39 80.845,-59.71 131.695,-54.45c32,3.32 75.027,18.43 96.304,32.9c31.84,21.66 53.66,53.52 66.5,88.71c6.9,18.9 11.16,51.23 8.51,72.76c-5.08,41.35 -10.38,58.52 -31.53,87.65c-11.34,15.63 -37.85,33.72 -53.91,42.05c-26.294,13.64 -64.311,25.56 -130.568,12.65c-38.931,-7.59 -51.354,-19.05 -84.681,-47.4c-14.479,-12.32 -27.64,-31.78 -36.539,-52.1c-10.206,-23.31 -9.713,-44.67 -8.946,-67.94c0.688,-20.88 9.094,-49.56 14.695,-66.71c6.941,-21.24 12.525,-30.13 28.47,-48.12l0,0Z" style="fill:#ff7d66;"/><path d="M58.601,70.45c37.556,-42.39 80.845,-59.71 131.695,-54.45c32,3.32 -26.288,4.42 -56.805,16.99c-15.935,6.56 -37.966,21.1 -50.425,34.33c-2.082,2.21 -4.119,4.63 -6.1,7.33c-18.315,24.9 -25.463,31.19 -31.532,49.95c-5.942,18.37 -17.394,60.44 -19.041,76.92c-2.835,28.38 6.888,72.02 -2.011,51.7c-10.206,-23.31 -9.713,-44.67 -8.946,-67.94c0.688,-20.88 9.094,-49.56 14.695,-66.71c6.941,-21.24 12.525,-30.13 28.47,-48.12l0,0Z" style="fill:#fff;fill-opacity:0.8;"/><path d="M172.136,356.78c-26.007,-2.81 -69.179,-6.42 -118.796,-58.67c-11.443,-12.05 -21.641,-28.18 -28.958,-44.89c-10.206,-23.31 -9.713,-44.67 -8.946,-67.94c0.688,-20.88 9.094,-49.56 14.695,-66.71c6.941,-21.24 12.525,-30.13 28.47,-48.12c37.556,-42.39 80.845,-59.71 131.695,-54.45c32,3.32 75.027,18.43 96.304,32.9c31.84,21.66 53.66,53.52 66.5,88.71c6.9,18.9 11.16,51.23 8.51,72.76c-5.08,41.35 -10.38,58.52 -31.53,87.65c-11.34,15.63 -37.85,33.72 -53.91,42.05c-22.565,11.71 -53.763,22.15 -104.034,16.71l0,0Z" style="fill:none;stroke:#000;stroke-width:6px;"/><path d="M339.22,107.09c-11.38,-21.85 -2.15,56.74 0.61,70.08c2.9,14.01 1.86,42.61 -3.16,54.69c-4.6,11.08 -6.67,21.97 -7.77,32.17c-2.11,19.66 -26,43.51 -47.09,47.5c-10.39,1.97 -24.75,4.39 -33.45,8.02c-7.59,3.16 -8.43,12.08 -14.49,17.58c-6.06,5.51 -21.86,20.68 -13.32,19.32c38.08,-6.05 58.14,-16.23 82.35,-33.02c26.61,-18.45 51.99,-56.39 57.89,-105.22c6.82,-56.42 -12.19,-93.14 -21.57,-111.12l0,0Z" style="fill:#de4f4b;stroke:#000;stroke-width:6px;"/><path d="M215.46,304.898c0.5,-1.65 1.61,-2.53 3.01,-3.02" style="fill:none;stroke:#000;stroke-width:6px;"/><path d="M177.95,29.64c-0.56,-0.32 2.24,1.73 5.08,0.1" style="fill:none;stroke:#000;stroke-width:6px;"/><path d="M55.9,243.995c0.86,1.11 0.68,2.17 -0.36,3.21" style="fill:none;stroke:#000;stroke-width:6px;"/><path d="M62.974,249.369c-0.743,2.275 -0.588,4.447 0.311,6.579" style="fill:none;stroke:#000;stroke-width:6px;"/><path d="M245.45,90.98c-0.78,4.47 -1.17,2.8 1.58,2.56" style="fill:none;stroke:#000;stroke-width:6px;"/><g><g><path d="M126.956,193.977c3.57,-5.651 7.436,-8.477 11.6,-8.477c3.272,0 6.693,1.933 10.262,5.8c3.569,3.569 5.354,7.287 5.354,11.154c0,0.595 0,1.041 0,1.338c-0.595,4.759 -2.974,8.329 -7.139,10.708c-3.866,1.785 -7.287,2.677 -10.261,2.677c-3.867,0 -7.139,-1.338 -9.816,-4.015c-2.676,-2.677 -4.015,-5.652 -4.015,-8.923c0,-2.975 1.339,-6.395 4.015,-10.262Z" style="fill:none;"/><path d="M183.057,193.977c3.57,-5.651 7.436,-8.477 11.6,-8.477c3.272,0 6.693,1.933 10.262,5.8c3.569,3.569 5.354,7.287 5.354,11.154c0,0.595 0,1.041 0,1.338c-0.595,4.759 -2.974,8.329 -7.139,10.708c-3.866,1.785 -7.287,2.677 -10.261,2.677c-3.867,0 -7.139,-1.338 -9.816,-4.015c-2.676,-2.677 -4.015,-5.652 -4.015,-8.923c0,-2.975 1.339,-6.395 4.015,-10.262Z" style="fill:none;"/><path d="M241.058,193.977c3.569,-5.651 7.435,-8.477 11.6,-8.477c3.271,0 6.692,1.933 10.261,5.8c3.569,3.569 5.354,7.287 5.354,11.154c0,0.595 0,1.041 0,1.338c-0.595,4.759 -2.974,8.329 -7.139,10.708c-3.866,1.785 -7.287,2.677 -10.261,2.677c-3.867,0 -7.139,-1.338 -9.815,-4.015c-2.677,-2.677 -4.016,-5.652 -4.016,-8.923c0,-2.975 1.339,-6.395 4.016,-10.262Z" style="fill:none;"/></g><g><path d="M126.956,193.977c3.57,-5.651 7.436,-8.477 11.6,-8.477c3.272,0 6.693,1.933 10.262,5.8c3.569,3.569 5.354,7.287 5.354,11.154c0,0.595 0,1.041 0,1.338c-0.595,4.759 -2.974,8.329 -7.139,10.708c-3.866,1.785 -7.287,2.677 -10.261,2.677c-3.867,0 -7.139,-1.338 -9.816,-4.015c-2.676,-2.677 -4.015,-5.652 -4.015,-8.923c0,-2.975 1.339,-6.395 4.015,-10.262Z" style="fill-opacity:0.8;fill-rule:nonzero;"/><path d="M183.057,193.977c3.57,-5.651 7.436,-8.477 11.6,-8.477c3.272,0 6.693,1.933 10.262,5.8c3.569,3.569 5.354,7.287 5.354,11.154c0,0.595 0,1.041 0,1.338c-0.595,4.759 -2.974,8.329 -7.139,10.708c-3.866,1.785 -7.287,2.677 -10.261,2.677c-3.867,0 -7.139,-1.338 -9.816,-4.015c-2.676,-2.677 -4.015,-5.652 -4.015,-8.923c0,-2.975 1.339,-6.395 4.015,-10.262Z" style="fill-opacity:0.8;fill-rule:nonzero;"/><path d="M241.058,193.977c3.569,-5.651 7.435,-8.477 11.6,-8.477c3.271,0 6.692,1.933 10.261,5.8c3.569,3.569 5.354,7.287 5.354,11.154c0,0.595 0,1.041 0,1.338c-0.595,4.759 -2.974,8.329 -7.139,10.708c-3.866,1.785 -7.287,2.677 -10.261,2.677c-3.867,0 -7.139,-1.338 -9.815,-4.015c-2.677,-2.677 -4.016,-5.652 -4.016,-8.923c0,-2.975 1.339,-6.395 4.016,-10.262Z" style="fill-opacity:0.8;fill-rule:nonzero;"/></g></g></g></svg>
