<?xml version="1.0" encoding="UTF-8" standalone="no"?>
<!DOCTYPE svg PUBLIC "-//W3C//DTD SVG 1.1//EN" "http://www.w3.org/Graphics/SVG/1.1/DTD/svg11.dtd">
<svg width="100%" height="100%" viewBox="0 0 1614 372" version="1.1" xmlns="http://www.w3.org/2000/svg" xmlns:xlink="http://www.w3.org/1999/xlink" xml:space="preserve" style="fill-rule:evenodd;clip-rule:evenodd;stroke-linecap:round;stroke-linejoin:round;stroke-miterlimit:1.5;">
    <g id="g4">
        <path id="path6" d="M1608.08,101.088C1607.7,98.406 1585.36,44.394 1581.16,40.498C1565.82,26.276 1438.68,92.633 1340.29,91.194C1118.3,87.941 801.14,83.533 558.2,90.631C432.75,94.3 173.069,89.877 82.794,91.871C65.076,92.261 65.45,94.465 64.469,100.989C62.131,116.531 57.675,153.628 59.463,186.464C60.866,212.243 54.642,241.071 57.431,267.016C59.661,287.757 27.592,323.64 40.723,337.037C51.993,348.535 75.38,359.294 80.995,362.926C90.477,369.06 85.99,368.169 103.734,368.331C191.625,369.141 370.87,373.861 573.16,371.002C796.73,367.845 1059.51,365.229 1251.62,367.157C1403.54,368.681 1517.88,369.913 1587.6,369.273C1605.35,369.111 1603.07,368.754 1604.01,362.23C1605.29,353.256 1611.11,292.978 1612.35,276.862C1615.81,231.586 1607.3,205.119 1609.74,156.627C1610.73,137.019 1609.47,110.776 1608.08,101.088L1608.08,101.088Z" style="fill-opacity:0.14902;"/>
        <path id="path8" d="M1583.46,70.308C1582.53,63.788 1582.9,61.702 1565.2,61.201C1516.4,59.825 1414.06,61.853 1315.67,60.414C1093.68,57.161 776.52,52.753 533.58,59.851C408.13,63.52 148.449,59.097 58.174,61.091C40.456,61.481 40.83,63.685 39.849,70.209C37.511,85.751 33.055,122.848 34.843,155.684C36.246,181.463 30.022,210.291 32.811,236.236C36.646,271.901 39.668,314.186 38.423,330.115C37.745,338.787 45.451,337.389 63.195,337.551C151.085,338.361 346.25,343.081 548.54,340.222C772.11,337.065 1034.89,334.449 1227,336.377C1378.92,337.901 1493.26,339.133 1562.98,338.493C1580.73,338.331 1578.45,337.974 1579.39,331.45C1580.67,322.476 1586.49,262.198 1587.73,246.082C1591.19,200.806 1582.68,174.339 1585.12,125.847C1586.11,106.239 1584.85,79.996 1583.46,70.308L1583.46,70.308Z" style="fill:rgb(116,128,216);stroke:black;stroke-width:6px;"/>
        <path id="buttonSurface" d="M1583.46,46.338C1582.53,39.818 1582.9,37.732 1565.2,37.231C1516.4,35.855 1414.06,37.883 1315.67,36.444C1093.68,33.191 776.52,28.783 533.58,35.881C408.13,39.55 148.449,35.127 58.174,37.121C40.456,37.511 40.83,39.715 39.849,46.239C37.511,61.781 33.055,98.878 34.843,131.714C36.246,157.493 30.022,186.321 32.811,212.266C36.646,247.931 39.668,290.216 38.423,306.145C37.745,314.817 45.451,313.419 63.195,313.581C151.085,314.391 346.25,319.111 548.54,316.252C772.11,313.095 1034.89,310.479 1227,312.407C1378.92,313.931 1493.26,315.163 1562.98,314.523C1580.73,314.361 1578.45,314.004 1579.39,307.48C1580.67,298.506 1586.49,238.228 1587.73,222.112C1591.19,176.836 1582.68,150.369 1585.12,101.877C1586.11,82.269 1584.85,56.026 1583.46,46.338L1583.46,46.338Z"/>
        <path id="path12" d="M261.44,53.145C311,53.68 390.22,53.971 408,53.444C456.8,51.998 545.36,48.801 633.96,48.444C792.67,47.812 1031.88,32.225 858.22,32.458C757.26,32.593 622.89,33.705 533.58,36.453C408.13,40.317 148.449,35.659 58.174,37.759C40.456,38.17 40.83,40.492 39.849,47.363C37.702,62.396 38.062,96.675 35.576,128.873C35.355,131.733 35.112,134.578 34.843,137.392C29.796,190.068 38.669,243.175 37.659,261.258C37.354,266.711 45.623,224.777 45.014,206.787C44.408,188.874 48.188,167.253 48.458,164.381C49.104,157.506 49.694,127.075 50.627,120.208C51.911,110.755 51.258,93.497 52.996,76.53C55.541,51.688 50.195,53.858 86.754,53.296C157.399,52.211 235.084,52.862 261.44,53.145L261.44,53.145Z" style="fill:white;fill-opacity:0.8;"/>
        <path id="path14" d="M754.236,313.787C771.206,313.603 788.216,313.434 805.226,313.268" style="fill:none;stroke:black;stroke-width:6px;"/>
        <path id="path16" d="M830.87,312.959C942.69,311.984 1053.39,311.487 1151.46,311.888" style="fill:none;stroke:black;stroke-width:6px;"/>
        <path id="path18" d="M1227,312.407C1378.92,313.931 1493.26,315.163 1562.98,314.523C1580.73,314.361 1578.45,314.004 1579.39,307.48C1580.67,298.506 1586.49,238.228 1587.73,222.112C1591.19,176.836 1582.68,150.369 1585.12,101.877C1586.11,82.269 1584.85,56.026 1583.46,46.338C1582.53,39.818 1582.9,37.732 1565.2,37.231C1516.4,35.855 1414.06,37.883 1315.67,36.444C1093.68,33.191 776.52,28.783 533.58,35.881C408.13,39.55 148.449,35.127 58.174,37.121C40.456,37.511 40.83,39.715 39.849,46.239C37.511,61.781 33.055,98.878 34.843,131.714C36.246,157.493 30.022,186.321 32.811,212.266C36.646,247.931 39.668,290.216 38.423,306.145C37.745,314.817 45.451,313.419 63.195,313.581C151.085,314.391 346.25,319.111 548.54,316.252C603.94,315.472 661.74,314.722 720.28,314.067" style="fill:none;stroke:black;stroke-width:6px;"/>
        <path id="path20" d="M119.617,236.62C121.033,236.35 123.708,234.34 121.359,239.12" style="fill:none;stroke:black;stroke-width:6px;"/>
        <path id="path22" d="M342.493,290.806C345.237,290.715 350.421,290.039 345.869,291.647" style="fill:none;stroke:black;stroke-width:6px;"/>
        <path id="path24" d="M1470.84,82.08C1470.66,84.48 1472.65,86.08 1478.04,86.42" style="fill:none;stroke:black;stroke-width:6px;"/>
        <path id="path26" d="M1485.18,74.55C1487.36,74.26 1487.56,75.5 1487.12,77.23" style="fill:none;stroke:black;stroke-width:6px;"/>
        <path id="path28" d="M79.732,219.485C80.263,215.666 82.316,213.733 84.852,212.392" style="fill:none;stroke:black;stroke-width:6px;"/>
        <g id="path30" transform="matrix(1,0,0,1,-91.1227,-49.1208)">
            <path d="M219.766,155.396L220.482,158.829" style="fill:none;stroke:black;stroke-width:6px;"/>
        </g>
        <path id="path32" d="M1251.21,280.24L1250.58,283.69" style="fill:none;stroke:black;stroke-width:6px;"/>
        <path id="path34" d="M867.877,285.925C870.888,287.508 869.225,287.085 871.53,285.763" style="fill:none;stroke:black;stroke-width:6px;"/>
        <g transform="matrix(9.89852,0,0,9.89852,-3862.92,-1565.23)">
            <path d="M413.163,177.024C413.163,176.821 413.093,176.629 412.953,176.45C412.812,176.278 412.546,176.044 412.156,175.747C411.757,175.442 411.495,175.192 411.37,174.997C411.238,174.801 411.132,174.587 411.054,174.352C410.953,173.852 411.089,173.395 411.464,172.981C411.581,172.856 411.718,172.754 411.874,172.676C411.984,172.622 412.109,172.594 412.249,172.594C412.304,172.594 412.359,172.598 412.413,172.606C412.773,172.637 413.078,172.758 413.328,172.969C413.867,173.422 414.081,173.747 413.972,173.942C413.792,174.223 413.476,174.169 413.023,173.778C412.757,173.544 412.542,173.426 412.378,173.426C412.214,173.434 412.078,173.524 411.968,173.696C411.843,173.837 411.808,174.016 411.863,174.235C411.925,174.446 412.175,174.723 412.613,175.067C413.23,175.551 413.632,175.965 413.82,176.309C413.937,176.52 413.995,176.739 413.995,176.965C413.995,177.122 413.972,177.282 413.925,177.446C413.855,177.626 413.781,177.782 413.703,177.915C413.617,178.04 413.468,178.172 413.257,178.313C412.984,178.454 412.687,178.524 412.367,178.524C412.226,178.524 412.085,178.508 411.945,178.477C411.453,178.399 411.089,178.169 410.855,177.786C410.714,177.551 410.644,177.364 410.644,177.223C410.644,177.153 410.667,177.094 410.714,177.047C410.839,176.922 411.05,177.012 411.347,177.317C411.558,177.489 411.777,177.614 412.003,177.692C412.23,177.778 412.503,177.751 412.824,177.61C412.98,177.524 413.078,177.434 413.117,177.34C413.148,177.254 413.163,177.149 413.163,177.024Z" style="fill-rule:nonzero;"/>
            <path d="M416.843,175.395C416.843,175.278 416.726,175.219 416.492,175.219C416.257,175.219 416.062,175.278 415.906,175.395C415.796,175.481 415.722,175.563 415.683,175.641C415.66,175.672 415.648,175.704 415.648,175.735C415.648,175.766 415.66,175.794 415.683,175.817C415.722,175.856 415.796,175.876 415.906,175.876C416.085,175.876 416.285,175.817 416.503,175.7C416.73,175.583 416.843,175.481 416.843,175.395ZM415.566,174.727C415.785,174.594 416.054,174.528 416.374,174.528C416.492,174.528 416.613,174.536 416.738,174.551C417.23,174.622 417.519,174.762 417.605,174.973C417.636,175.067 417.652,175.157 417.652,175.243C417.652,175.485 417.538,175.727 417.312,175.969C416.937,176.391 416.453,176.583 415.859,176.544C415.632,176.536 415.499,176.544 415.46,176.567C415.421,176.59 415.41,176.657 415.425,176.766C415.449,176.962 415.535,177.098 415.683,177.176C415.824,177.254 416.105,177.305 416.527,177.329C417.074,177.368 417.347,177.442 417.347,177.551C417.347,177.622 417.277,177.727 417.136,177.868C417.011,177.985 416.902,178.055 416.808,178.079C416.769,178.087 416.706,178.09 416.62,178.09C416.511,178.09 416.374,178.083 416.21,178.067C415.195,177.997 414.687,177.508 414.687,176.602C414.687,176.508 414.695,176.407 414.71,176.297C414.749,175.985 414.851,175.676 415.015,175.372C415.179,175.067 415.363,174.852 415.566,174.727Z" style="fill-rule:nonzero;"/>
            <path d="M420.523,175.395C420.523,175.278 420.406,175.219 420.171,175.219C419.937,175.219 419.742,175.278 419.585,175.395C419.476,175.481 419.402,175.563 419.363,175.641C419.339,175.672 419.328,175.704 419.328,175.735C419.328,175.766 419.339,175.794 419.363,175.817C419.402,175.856 419.476,175.876 419.585,175.876C419.765,175.876 419.964,175.817 420.183,175.7C420.41,175.583 420.523,175.481 420.523,175.395ZM419.245,174.727C419.464,174.594 419.734,174.528 420.054,174.528C420.171,174.528 420.292,174.536 420.417,174.551C420.91,174.622 421.199,174.762 421.285,174.973C421.316,175.067 421.331,175.157 421.331,175.243C421.331,175.485 421.218,175.727 420.992,175.969C420.617,176.391 420.132,176.583 419.538,176.544C419.312,176.536 419.179,176.544 419.14,176.567C419.101,176.59 419.089,176.657 419.105,176.766C419.128,176.962 419.214,177.098 419.363,177.176C419.503,177.254 419.785,177.305 420.206,177.329C420.753,177.368 421.027,177.442 421.027,177.551C421.027,177.622 420.956,177.727 420.816,177.868C420.691,177.985 420.581,178.055 420.488,178.079C420.449,178.087 420.386,178.09 420.3,178.09C420.191,178.09 420.054,178.083 419.89,178.067C418.874,177.997 418.367,177.508 418.367,176.602C418.367,176.508 418.374,176.407 418.39,176.297C418.429,175.985 418.531,175.676 418.695,175.372C418.859,175.067 419.042,174.852 419.245,174.727Z" style="fill-rule:nonzero;"/>
            <path d="M426.769,174.645C426.949,174.645 427.085,174.665 427.179,174.704C427.273,174.751 427.394,174.856 427.542,175.02C427.62,175.106 427.742,175.231 427.906,175.395C427.929,175.356 427.98,175.282 428.058,175.172C428.144,175.04 428.285,174.938 428.48,174.868C428.683,174.797 428.87,174.778 429.042,174.809C429.222,174.848 429.433,174.985 429.675,175.219C429.925,175.454 430.089,175.68 430.167,175.899C430.269,176.141 430.363,176.52 430.449,177.036C430.519,177.426 430.554,177.696 430.554,177.844C430.554,177.899 430.55,177.938 430.542,177.962C430.519,178.055 430.441,178.122 430.308,178.161C429.988,178.254 429.765,177.954 429.64,177.258C429.554,176.743 429.492,176.426 429.453,176.309C429.39,176.122 429.281,175.954 429.124,175.805C428.968,175.649 428.847,175.59 428.761,175.629C428.652,175.669 428.566,175.837 428.503,176.133C428.433,176.43 428.398,176.79 428.398,177.212C428.398,177.618 428.37,177.883 428.316,178.008C428.253,178.133 428.132,178.196 427.953,178.196C427.82,178.196 427.718,178.137 427.648,178.02C427.585,177.903 427.535,177.688 427.495,177.376C427.441,177.016 427.347,176.629 427.214,176.215C427.089,175.809 426.988,175.571 426.91,175.501C426.706,175.337 426.519,175.465 426.347,175.887C426.214,176.215 426.132,176.649 426.101,177.188C426.07,177.587 426.042,177.833 426.019,177.926C425.995,178.012 425.937,178.059 425.843,178.067C425.703,178.09 425.597,178.032 425.527,177.891C425.456,177.758 425.406,177.501 425.374,177.118C425.359,176.985 425.351,176.86 425.351,176.743C425.351,176.047 425.566,175.473 425.995,175.02C426.152,174.856 426.277,174.751 426.37,174.704C426.456,174.665 426.589,174.645 426.769,174.645Z" style="fill-rule:nonzero;"/>
            <path d="M432.839,177.235C433.128,177.235 433.351,177.18 433.507,177.071C433.663,176.969 433.769,176.797 433.824,176.555C433.855,176.438 433.87,176.317 433.87,176.192C433.87,176.067 433.855,175.942 433.824,175.817C433.761,175.559 433.652,175.376 433.495,175.266C433.355,175.165 433.206,175.114 433.05,175.114C433.011,175.114 432.972,175.118 432.933,175.126C432.722,175.157 432.554,175.258 432.429,175.43C432.163,175.782 432.031,176.114 432.031,176.426C432.031,176.497 432.035,176.567 432.042,176.637C432.081,176.856 432.16,177.012 432.277,177.106C432.394,177.192 432.581,177.235 432.839,177.235ZM432.288,174.633C432.46,174.501 432.601,174.422 432.71,174.399C432.749,174.391 432.804,174.387 432.874,174.387C432.96,174.387 433.066,174.395 433.191,174.411C433.691,174.473 434.078,174.704 434.351,175.102C434.546,175.391 434.644,175.743 434.644,176.157C434.644,176.219 434.64,176.286 434.632,176.356C434.593,176.864 434.437,177.262 434.163,177.551C433.96,177.762 433.691,177.911 433.355,177.997C433.183,178.036 433.011,178.055 432.839,178.055C432.683,178.055 432.531,178.036 432.382,177.997C431.913,177.872 431.581,177.598 431.386,177.176C431.292,176.95 431.242,176.715 431.234,176.473C431.234,176.262 431.273,176.044 431.351,175.817C431.515,175.325 431.828,174.93 432.288,174.633Z" style="fill-rule:nonzero;"/>
            <path d="M438.359,175.243C438.359,175.493 438.109,175.536 437.609,175.372C437.132,175.215 436.792,175.27 436.589,175.536C436.394,175.809 436.304,176.352 436.32,177.165C436.335,177.844 436.312,178.204 436.249,178.243C436.21,178.266 436.16,178.278 436.097,178.278C436.042,178.278 435.98,178.266 435.91,178.243C435.761,178.204 435.671,178.141 435.64,178.055C435.601,177.946 435.562,177.391 435.523,176.391C435.499,175.883 435.488,175.512 435.488,175.278C435.488,175.192 435.488,175.126 435.488,175.079C435.503,174.907 435.546,174.805 435.617,174.774C435.718,174.735 435.831,174.766 435.956,174.868C436.066,174.962 436.148,174.981 436.203,174.926C436.265,174.864 436.394,174.79 436.589,174.704C436.769,174.61 436.96,174.563 437.163,174.563C437.328,174.563 437.503,174.594 437.691,174.657C438.136,174.805 438.359,175.001 438.359,175.243Z" style="fill-rule:nonzero;"/>
            <path d="M440.726,175.395C440.726,175.278 440.609,175.219 440.374,175.219C440.14,175.219 439.945,175.278 439.788,175.395C439.679,175.481 439.605,175.563 439.566,175.641C439.542,175.672 439.531,175.704 439.531,175.735C439.531,175.766 439.542,175.794 439.566,175.817C439.605,175.856 439.679,175.876 439.788,175.876C439.968,175.876 440.167,175.817 440.386,175.7C440.613,175.583 440.726,175.481 440.726,175.395ZM439.449,174.727C439.667,174.594 439.937,174.528 440.257,174.528C440.374,174.528 440.495,174.536 440.62,174.551C441.113,174.622 441.402,174.762 441.488,174.973C441.519,175.067 441.535,175.157 441.535,175.243C441.535,175.485 441.421,175.727 441.195,175.969C440.82,176.391 440.335,176.583 439.742,176.544C439.515,176.536 439.382,176.544 439.343,176.567C439.304,176.59 439.292,176.657 439.308,176.766C439.331,176.962 439.417,177.098 439.566,177.176C439.706,177.254 439.988,177.305 440.41,177.329C440.956,177.368 441.23,177.442 441.23,177.551C441.23,177.622 441.16,177.727 441.019,177.868C440.894,177.985 440.785,178.055 440.691,178.079C440.652,178.087 440.589,178.09 440.503,178.09C440.394,178.09 440.257,178.083 440.093,178.067C439.078,177.997 438.57,177.508 438.57,176.602C438.57,176.508 438.578,176.407 438.593,176.297C438.632,175.985 438.734,175.676 438.898,175.372C439.062,175.067 439.245,174.852 439.449,174.727Z" style="fill-rule:nonzero;"/>
            <path d="M447.113,177.235C447.402,177.235 447.624,177.18 447.781,177.071C447.937,176.969 448.042,176.797 448.097,176.555C448.128,176.438 448.144,176.317 448.144,176.192C448.144,176.067 448.128,175.942 448.097,175.817C448.035,175.559 447.925,175.376 447.769,175.266C447.628,175.165 447.48,175.114 447.324,175.114C447.285,175.114 447.245,175.118 447.206,175.126C446.995,175.157 446.828,175.258 446.703,175.43C446.437,175.782 446.304,176.114 446.304,176.426C446.304,176.497 446.308,176.567 446.316,176.637C446.355,176.856 446.433,177.012 446.55,177.106C446.667,177.192 446.855,177.235 447.113,177.235ZM446.562,174.633C446.734,174.501 446.874,174.422 446.984,174.399C447.023,174.391 447.078,174.387 447.148,174.387C447.234,174.387 447.339,174.395 447.464,174.411C447.964,174.473 448.351,174.704 448.624,175.102C448.82,175.391 448.917,175.743 448.917,176.157C448.917,176.219 448.913,176.286 448.906,176.356C448.867,176.864 448.71,177.262 448.437,177.551C448.234,177.762 447.964,177.911 447.628,177.997C447.456,178.036 447.285,178.055 447.113,178.055C446.956,178.055 446.804,178.036 446.656,177.997C446.187,177.872 445.855,177.598 445.66,177.176C445.566,176.95 445.515,176.715 445.507,176.473C445.507,176.262 445.546,176.044 445.624,175.817C445.788,175.325 446.101,174.93 446.562,174.633Z" style="fill-rule:nonzero;"/>
            <path d="M451.882,173.391C451.593,173.391 451.39,173.434 451.273,173.52C451.148,173.614 451.058,173.778 451.003,174.012C450.925,174.356 450.902,174.563 450.933,174.633C450.964,174.704 451.101,174.739 451.343,174.739C451.632,174.739 451.808,174.805 451.87,174.938C451.949,175.094 451.929,175.227 451.812,175.337C451.687,175.446 451.507,175.501 451.273,175.501C451.195,175.501 451.074,175.501 450.91,175.501C450.91,175.68 450.91,176.028 450.91,176.544C450.91,177.239 450.86,177.641 450.76,177.751C450.698,177.813 450.633,177.844 450.563,177.844C450.525,177.844 450.483,177.833 450.436,177.809C450.313,177.747 450.236,177.637 450.206,177.481C450.167,177.325 450.148,176.985 450.148,176.462C450.148,176.04 450.14,175.77 450.124,175.653C450.101,175.536 450.046,175.454 449.96,175.407C449.843,175.344 449.781,175.266 449.773,175.172C449.773,175.172 449.773,175.169 449.773,175.161C449.773,175.075 449.828,174.989 449.937,174.903C450.054,174.833 450.155,174.575 450.24,174.129C450.302,173.754 450.375,173.489 450.459,173.333C450.536,173.169 450.675,173.024 450.875,172.899C451.046,172.79 451.269,172.731 451.542,172.723C451.558,172.723 451.57,172.723 451.578,172.723C451.835,172.723 452.05,172.77 452.222,172.864C452.363,172.934 452.433,173.02 452.433,173.122C452.433,173.153 452.425,173.188 452.41,173.227C452.363,173.337 452.187,173.391 451.882,173.391Z" style="fill-rule:nonzero;"/>
            <path d="M457.718,174.645C457.898,174.645 458.035,174.665 458.128,174.704C458.222,174.751 458.343,174.856 458.492,175.02C458.57,175.106 458.691,175.231 458.855,175.395C458.878,175.356 458.929,175.282 459.007,175.172C459.093,175.04 459.234,174.938 459.429,174.868C459.632,174.797 459.82,174.778 459.992,174.809C460.171,174.848 460.382,174.985 460.624,175.219C460.874,175.454 461.038,175.68 461.117,175.899C461.218,176.141 461.312,176.52 461.398,177.036C461.468,177.426 461.503,177.696 461.503,177.844C461.503,177.899 461.499,177.938 461.492,177.962C461.468,178.055 461.39,178.122 461.257,178.161C460.937,178.254 460.714,177.954 460.589,177.258C460.503,176.743 460.441,176.426 460.402,176.309C460.339,176.122 460.23,175.954 460.074,175.805C459.917,175.649 459.796,175.59 459.71,175.629C459.601,175.669 459.515,175.837 459.453,176.133C459.382,176.43 459.347,176.79 459.347,177.212C459.347,177.618 459.32,177.883 459.265,178.008C459.203,178.133 459.081,178.196 458.902,178.196C458.769,178.196 458.667,178.137 458.597,178.02C458.535,177.903 458.484,177.688 458.445,177.376C458.39,177.016 458.296,176.629 458.163,176.215C458.038,175.809 457.937,175.571 457.859,175.501C457.656,175.337 457.468,175.465 457.296,175.887C457.163,176.215 457.081,176.649 457.05,177.188C457.019,177.587 456.992,177.833 456.968,177.926C456.945,178.012 456.886,178.059 456.792,178.067C456.652,178.09 456.546,178.032 456.476,177.891C456.406,177.758 456.355,177.501 456.324,177.118C456.308,176.985 456.3,176.86 456.3,176.743C456.3,176.047 456.515,175.473 456.945,175.02C457.101,174.856 457.226,174.751 457.32,174.704C457.406,174.665 457.538,174.645 457.718,174.645Z" style="fill-rule:nonzero;"/>
            <path d="M465.288,177.2C465.288,177.879 465.191,178.387 464.995,178.723C464.792,179.059 464.456,179.294 463.988,179.426C463.753,179.489 463.55,179.52 463.378,179.52C463.245,179.52 463.132,179.504 463.038,179.473C462.804,179.387 462.687,179.212 462.687,178.946C462.687,178.782 462.718,178.68 462.781,178.641C462.843,178.602 462.953,178.618 463.109,178.688C463.265,178.751 463.48,178.751 463.753,178.688C464.019,178.618 464.206,178.473 464.316,178.254C464.425,178.028 464.499,177.715 464.538,177.317C464.46,177.372 464.335,177.454 464.163,177.563C463.679,177.891 463.245,177.848 462.863,177.434C462.605,177.145 462.433,176.629 462.347,175.887C462.331,175.754 462.324,175.645 462.324,175.559C462.324,175.497 462.328,175.45 462.335,175.419C462.351,175.325 462.398,175.227 462.476,175.126C462.562,175.016 462.624,174.958 462.663,174.95C462.71,174.934 462.765,174.954 462.828,175.008C462.89,175.079 462.937,175.145 462.968,175.208C462.992,175.278 463.003,175.344 463.003,175.407C463.011,175.462 463.023,175.551 463.038,175.676C463.046,175.801 463.062,175.926 463.085,176.051C463.203,176.606 463.347,176.919 463.519,176.989C463.699,177.051 463.89,176.864 464.093,176.426C464.249,176.098 464.328,175.723 464.328,175.301C464.328,174.872 464.347,174.645 464.386,174.622C464.425,174.575 464.495,174.551 464.597,174.551C464.706,174.551 464.8,174.579 464.878,174.633C464.964,174.688 465.054,175.008 465.148,175.594C465.242,176.18 465.288,176.715 465.288,177.2Z" style="fill-rule:nonzero;"/>
            <path d="M472.449,177.235C472.644,177.118 472.765,176.985 472.812,176.837C472.867,176.696 472.921,176.364 472.976,175.84C473.054,175.161 473.136,174.794 473.222,174.739C473.285,174.692 473.347,174.669 473.41,174.669C473.558,174.669 473.663,174.817 473.726,175.114C473.757,175.254 473.773,175.419 473.773,175.606C473.773,175.794 473.757,176.004 473.726,176.239C473.617,177.067 473.374,177.594 472.999,177.821C472.718,177.993 472.449,178.044 472.191,177.973C471.933,177.903 471.745,177.727 471.628,177.446C471.597,177.376 471.55,177.266 471.488,177.118C471.433,177.18 471.328,177.305 471.171,177.493C470.882,177.821 470.57,178.012 470.234,178.067C470.171,178.083 470.113,178.09 470.058,178.09C469.808,178.09 469.605,177.989 469.449,177.786C469.363,177.669 469.308,177.516 469.285,177.329C469.261,177.149 469.249,176.774 469.249,176.204C469.249,175.571 469.257,175.192 469.273,175.067C469.296,174.942 469.359,174.872 469.46,174.856C469.601,174.84 469.703,174.942 469.765,175.161C469.835,175.379 469.894,175.782 469.941,176.368C469.98,176.962 470.038,177.274 470.117,177.305C470.171,177.329 470.32,177.223 470.562,176.989C470.742,176.817 470.874,176.618 470.96,176.391C471.038,176.165 471.117,175.805 471.195,175.313C471.226,175.071 471.261,174.922 471.3,174.868C471.339,174.813 471.413,174.778 471.523,174.762C471.687,174.747 471.8,174.801 471.863,174.926C471.925,175.051 471.992,175.356 472.062,175.84C472.21,176.77 472.339,177.235 472.449,177.235Z" style="fill-rule:nonzero;"/>
            <path d="M477.675,177.235C477.964,177.235 478.187,177.18 478.343,177.071C478.499,176.969 478.605,176.797 478.66,176.555C478.691,176.438 478.706,176.317 478.706,176.192C478.706,176.067 478.691,175.942 478.66,175.817C478.597,175.559 478.488,175.376 478.331,175.266C478.191,175.165 478.042,175.114 477.886,175.114C477.847,175.114 477.808,175.118 477.769,175.126C477.558,175.157 477.39,175.258 477.265,175.43C476.999,175.782 476.867,176.114 476.867,176.426C476.867,176.497 476.87,176.567 476.878,176.637C476.917,176.856 476.995,177.012 477.113,177.106C477.23,177.192 477.417,177.235 477.675,177.235ZM477.124,174.633C477.296,174.501 477.437,174.422 477.546,174.399C477.585,174.391 477.64,174.387 477.71,174.387C477.796,174.387 477.902,174.395 478.027,174.411C478.527,174.473 478.913,174.704 479.187,175.102C479.382,175.391 479.48,175.743 479.48,176.157C479.48,176.219 479.476,176.286 479.468,176.356C479.429,176.864 479.273,177.262 478.999,177.551C478.796,177.762 478.527,177.911 478.191,177.997C478.019,178.036 477.847,178.055 477.675,178.055C477.519,178.055 477.367,178.036 477.218,177.997C476.749,177.872 476.417,177.598 476.222,177.176C476.128,176.95 476.078,176.715 476.07,176.473C476.07,176.262 476.109,176.044 476.187,175.817C476.351,175.325 476.663,174.93 477.124,174.633Z" style="fill-rule:nonzero;"/>
            <path d="M483.195,175.243C483.195,175.493 482.945,175.536 482.445,175.372C481.968,175.215 481.628,175.27 481.425,175.536C481.23,175.809 481.14,176.352 481.156,177.165C481.171,177.844 481.148,178.204 481.085,178.243C481.046,178.266 480.995,178.278 480.933,178.278C480.878,178.278 480.816,178.266 480.745,178.243C480.597,178.204 480.507,178.141 480.476,178.055C480.437,177.946 480.398,177.391 480.359,176.391C480.335,175.883 480.324,175.512 480.324,175.278C480.324,175.192 480.324,175.126 480.324,175.079C480.339,174.907 480.382,174.805 480.453,174.774C480.554,174.735 480.667,174.766 480.792,174.868C480.902,174.962 480.984,174.981 481.038,174.926C481.101,174.864 481.23,174.79 481.425,174.704C481.605,174.61 481.796,174.563 481.999,174.563C482.163,174.563 482.339,174.594 482.527,174.657C482.972,174.805 483.195,175.001 483.195,175.243Z" style="fill-rule:nonzero;"/>
            <path d="M483.956,172.887C483.995,172.801 484.062,172.747 484.156,172.723C4869,172.723 484.199,172.723 484.214,172.723C484.285,172.723 484.339,172.754 484.378,172.817C484.41,172.864 484.472,173.278 484.566,174.059C484.652,174.84 484.699,175.337 484.706,175.547C484.706,175.665 484.781,175.649 484.929,175.501C484.976,175.454 485.038,175.387 485.117,175.301C485.46,174.919 485.652,174.704 485.691,174.657C485.87,174.43 486.031,174.434 486.171,174.669C486.312,174.872 486.132,175.286 485.632,175.911C485.546,176.02 485.417,176.18 485.245,176.391C485.503,176.547 485.843,176.837 486.265,177.258C486.562,177.555 486.71,177.786 486.71,177.95C486.71,177.965 486.706,177.977 486.699,177.985C486.652,178.438 486.312,178.372 485.679,177.786C485.499,177.614 485.37,177.497 485.292,177.434C485.214,177.364 485.12,177.294 485.011,177.223C484.902,177.145 484.788,177.075 484.671,177.012C484.749,177.692 484.757,178.094 484.695,178.219C484.64,178.329 484.535,178.383 484.378,178.383C484.378,178.383 484.374,178.383 484.367,178.383C484.203,178.376 484.093,178.313 484.038,178.196C483.984,178.087 483.941,177.208 483.91,175.559C483.902,175.004 483.898,174.54 483.898,174.165C483.898,173.399 483.917,172.973 483.956,172.887Z" style="fill-rule:nonzero;"/>
            <path d="M492.136,177.235C492.425,177.235 492.648,177.18 492.804,177.071C492.96,176.969 493.066,176.797 493.12,176.555C493.152,176.438 493.167,176.317 493.167,176.192C493.167,176.067 493.152,175.942 493.12,175.817C493.058,175.559 492.949,175.376 492.792,175.266C492.652,175.165 492.503,175.114 492.347,175.114C492.308,175.114 492.269,175.118 492.23,175.126C492.019,175.157 491.851,175.258 491.726,175.43C491.46,175.782 491.328,176.114 491.328,176.426C491.328,176.497 491.331,176.567 491.339,176.637C491.378,176.856 491.456,177.012 491.574,177.106C491.691,177.192 491.878,177.235 492.136,177.235ZM491.585,174.633C491.757,174.501 491.898,174.422 492.007,174.399C492.046,174.391 492.101,174.387 492.171,174.387C492.257,174.387 492.363,174.395 492.488,174.411C492.988,174.473 493.374,174.704 493.648,175.102C493.843,175.391 493.941,175.743 493.941,176.157C493.941,176.219 493.937,176.286 493.929,176.356C493.89,176.864 493.734,177.262 493.46,177.551C493.257,177.762 492.988,177.911 492.652,177.997C492.48,178.036 492.308,178.055 492.136,178.055C491.98,178.055 491.828,178.036 491.679,177.997C491.21,177.872 490.878,177.598 490.683,177.176C490.589,176.95 490.538,176.715 490.531,176.473C490.531,176.262 490.57,176.044 490.648,175.817C490.812,175.325 491.124,174.93 491.585,174.633Z" style="fill-rule:nonzero;"/>
            <path d="M497.632,178.29C497.476,178.29 497.367,178.251 497.304,178.172C497.265,178.11 497.179,177.672 497.046,176.86C496.921,176.04 496.828,175.602 496.765,175.547C496.546,175.219 496.245,175.219 495.863,175.547C495.527,175.829 495.359,176.454 495.359,177.422C495.359,177.946 495.308,178.227 495.206,178.266C495.05,178.321 494.933,178.258 494.855,178.079C494.777,177.907 494.73,177.598 494.714,177.153C494.706,177.044 494.703,176.938 494.703,176.837C494.703,175.751 495.062,175.047 495.781,174.727C496.023,174.618 496.245,174.563 496.449,174.563C496.675,174.563 496.878,174.637 497.058,174.786C497.269,174.958 497.425,175.176 497.527,175.442C497.636,175.708 497.73,176.137 497.808,176.731C497.878,177.247 497.913,177.622 497.913,177.856C497.913,177.903 497.913,177.946 497.913,177.985C497.89,178.188 497.796,178.29 497.632,178.29Z" style="fill-rule:nonzero;"/>
            <path d="M505.074,176.567C505.074,176.419 505.05,176.333 505.003,176.309C504.964,176.286 504.808,176.274 504.535,176.274C504.206,176.274 503.972,176.239 503.831,176.169C503.699,176.098 503.632,175.989 503.632,175.84C503.632,175.653 503.726,175.536 503.913,175.489C504.093,175.434 504.441,175.422 504.956,175.454C505.495,175.493 505.816,175.567 505.917,175.676C506.019,175.786 506.031,176.055 505.953,176.485C505.867,176.915 505.769,177.231 505.66,177.434C505.55,177.645 505.382,177.825 505.156,177.973C504.976,178.09 504.824,178.165 504.699,178.196C504.574,178.227 504.363,178.243 504.066,178.243C503.21,178.235 502.597,177.907 502.224,177.258C502.1,177.047 502.026,176.864 502.003,176.708C501.98,176.551 501.968,176.215 501.968,175.7C501.968,175.208 501.98,174.872 502.003,174.692C502.035,174.512 502.105,174.301 502.214,174.059C502.566,173.294 503.171,172.778 504.031,172.512C504.218,172.458 504.406,172.43 504.593,172.43C504.898,172.43 505.203,172.504 505.507,172.653C505.851,172.817 506.023,173.004 506.023,173.215C506.023,173.239 506.023,173.262 506.023,173.286C506.015,173.372 505.972,173.454 505.894,173.532C505.816,173.602 505.753,173.633 505.706,173.626C505.66,173.626 505.566,173.579 505.425,173.485C505.105,173.297 504.73,173.251 504.3,173.344C503.87,173.438 503.515,173.645 503.234,173.965C502.913,174.348 502.769,174.997 502.8,175.911C502.808,176.301 502.831,176.555 502.87,176.672C502.908,176.782 502.997,176.907 503.135,177.047C503.259,177.18 503.37,177.266 503.47,177.305C503.571,177.352 503.734,177.383 503.96,177.399C504.203,177.415 504.37,177.411 504.464,177.387C504.55,177.364 504.656,177.29 504.781,177.165C504.976,176.969 505.074,176.77 505.074,176.567Z" style="fill-rule:nonzero;"/>
            <path d="M507.165,178.102C506.988,178.102 506.876,178.001 506.83,177.797C506.784,177.594 506.757,177.137 506.749,176.426C506.749,176.348 506.749,176.274 506.749,176.204C506.749,175.43 506.788,174.993 506.865,174.891C506.949,174.79 507.042,174.739 507.142,174.739C507.157,174.739 507.169,174.739 507.176,174.739C507.292,174.754 507.361,174.825 507.384,174.95C507.43,175.184 507.465,175.696 507.488,176.485C507.503,176.813 507.511,177.083 507.511,177.294C507.511,177.536 507.503,177.708 507.488,177.809C507.45,178.004 507.342,178.102 507.165,178.102Z" style="fill-rule:nonzero;"/>
            <path d="M508.601,173.766C508.671,173.712 508.73,173.684 508.777,173.684C509.035,173.684 509.093,174.254 508.953,175.395C509.015,175.403 509.117,175.411 509.257,175.419C509.398,175.419 509.531,175.422 509.656,175.43C509.773,175.438 509.894,175.45 510.019,175.465C510.144,175.473 510.242,175.493 510.312,175.524C510.39,175.547 510.433,175.583 510.441,175.629C510.48,175.676 510.499,175.723 510.499,175.77C510.499,175.84 510.456,175.903 510.37,175.958C510.238,176.044 509.999,176.106 509.656,176.145C509.515,176.153 509.308,176.172 509.035,176.204C509.081,176.587 509.175,176.938 509.316,177.258C509.378,177.383 509.441,177.458 509.503,177.481C509.574,177.504 509.722,177.508 509.949,177.493C510.089,177.485 510.195,177.485 510.265,177.493C510.343,177.493 510.394,177.504 510.417,177.528C510.449,177.551 510.468,177.59 510.476,177.645C510.499,177.77 510.437,177.903 510.288,178.044C510.14,178.192 509.976,178.286 509.796,178.325C509.71,178.34 509.628,178.348 509.55,178.348C509.3,178.348 509.085,178.266 508.906,178.102C508.663,177.891 508.476,177.52 508.343,176.989C508.249,176.622 508.203,176.2 508.203,175.723C508.203,175.52 508.21,175.305 508.226,175.079C508.288,174.337 508.413,173.899 508.601,173.766Z" style="fill-rule:nonzero;"/>
            <path d="M512.07,175.219C512.453,175.219 513.206,175.219 514.331,175.219C514.331,175.032 514.331,174.661 514.331,174.106C514.316,173.606 514.316,173.29 514.331,173.157C514.347,173.016 514.394,172.922 514.472,172.876C514.597,172.797 514.714,172.805 514.824,172.899C514.933,172.985 515.007,173.137 515.046,173.356C515.109,174.661 515.14,175.688 515.14,176.438C515.14,177.258 515.105,177.758 515.035,177.938C514.925,178.071 514.8,178.118 514.66,178.079C514.519,178.04 514.421,177.661 514.367,176.942C514.359,176.754 514.343,176.465 514.32,176.075C513.453,176.098 512.706,176.059 512.081,175.958C512.081,176.176 512.081,176.504 512.081,176.942C512.081,177.356 512.074,177.629 512.058,177.762C512.035,177.895 511.992,177.985 511.929,178.032C511.867,178.079 511.804,178.098 511.742,178.09C511.679,178.09 511.62,178.063 511.566,178.008C511.464,177.899 511.394,177.7 511.355,177.411C511.324,177.215 511.292,176.415 511.261,175.008C511.253,174.672 511.249,174.372 511.249,174.106C511.249,173.294 511.285,172.856 511.355,172.794C511.449,172.676 511.538,172.618 511.624,172.618C511.703,172.618 511.773,172.661 511.835,172.747C511.867,172.825 511.898,173.008 511.929,173.297C511.96,173.594 511.988,173.973 512.011,174.434C512.042,174.903 512.062,175.165 512.07,175.219Z" style="fill-rule:nonzero;"/>
            <path d="M515.902,176.004C515.902,175.544 515.917,175.219 515.949,175.032C515.988,174.852 516.054,174.743 516.148,174.704C516.218,174.68 516.281,174.68 516.335,174.704C516.382,174.735 516.421,174.797 516.453,174.891C516.492,174.985 516.523,175.114 516.546,175.278C516.562,175.442 516.578,175.653 516.593,175.911C516.656,177.208 516.863,177.856 517.214,177.856C517.3,177.856 517.394,177.825 517.495,177.762C517.652,177.669 517.796,177.516 517.929,177.305C518.015,177.172 518.066,177.016 518.081,176.837C518.097,176.665 518.097,176.325 518.081,175.817C518.058,175.036 518.078,174.61 518.14,174.54C518.203,174.485 518.265,174.458 518.328,174.458C518.421,174.458 518.523,174.52 518.632,174.645C518.765,174.786 518.843,175.2 518.867,175.887C518.874,176.028 518.878,176.161 518.878,176.286C518.878,176.77 518.831,177.129 518.738,177.364C518.566,177.809 518.304,178.149 517.953,178.383C517.718,178.532 517.48,178.606 517.238,178.606C517.128,178.606 517.015,178.587 516.898,178.547C516.554,178.438 516.3,178.18 516.136,177.774C515.98,177.368 515.902,176.778 515.902,176.004Z" style="fill-rule:nonzero;"/>
            <path d="M520.484,177.422C520.546,177.43 520.609,177.434 520.671,177.434C520.906,177.434 521.128,177.391 521.339,177.305C521.605,177.196 521.769,177.044 521.831,176.848C521.863,176.754 521.878,176.661 521.878,176.567C521.878,176.458 521.859,176.348 521.82,176.239C521.749,176.036 521.636,175.887 521.48,175.794C521.324,175.7 521.117,175.637 520.859,175.606C520.788,175.598 520.726,175.594 520.671,175.594C520.531,175.594 520.441,175.622 520.402,175.676C520.402,175.692 520.402,175.727 520.402,175.782C520.402,176.008 520.429,176.555 520.484,177.422ZM520.144,173.227C520.206,173.305 520.245,173.504 520.261,173.825C520.277,174.153 520.292,174.352 520.308,174.422C520.339,174.563 520.386,174.649 520.449,174.68C520.503,174.712 520.648,174.739 520.882,174.762C521.296,174.801 521.652,174.926 521.949,175.137C522.245,175.348 522.46,175.598 522.593,175.887C522.679,176.075 522.722,176.274 522.722,176.485C522.722,176.587 522.71,176.696 522.687,176.813C522.624,177.149 522.46,177.458 522.195,177.739C521.968,177.981 521.57,178.149 520.999,178.243C520.788,178.274 520.601,178.29 520.437,178.29C520.156,178.29 519.945,178.243 519.804,178.149C519.71,178.087 519.652,177.954 519.628,177.751C519.605,177.547 519.578,177.001 519.546,176.11C519.531,175.712 519.523,175.352 519.523,175.032C519.523,173.915 519.609,173.301 519.781,173.192C519.867,173.137 519.933,173.11 519.98,173.11C520.027,173.118 520.081,173.157 520.144,173.227Z" style="fill-rule:nonzero;"/>
        </g>
        <g transform="matrix(2.86123,0,0,2.86123,953.829,-28.1108)">
            <path d="M152.608,55.455C143.614,55.455 136.32,62.748 136.32,71.746C136.32,78.942 140.987,85.048 147.46,87.202C148.275,87.351 148.572,86.848 148.572,86.417C148.572,86.03 148.558,85.006 148.55,83.646C144.019,84.631 143.063,81.463 143.063,81.463C142.322,79.581 141.254,79.08 141.254,79.08C139.775,78.069 141.366,78.09 141.366,78.09C143.001,78.205 143.861,79.768 143.861,79.768C145.314,82.258 147.674,81.539 148.602,81.122C148.75,80.069 149.171,79.351 149.636,78.944C146.019,78.533 142.216,77.135 142.216,70.893C142.216,69.115 142.851,67.661 143.893,66.522C143.725,66.11 143.166,64.454 144.053,62.211C144.053,62.211 145.42,61.773 148.532,63.881C149.831,63.52 151.225,63.339 152.61,63.333C153.994,63.339 155.387,63.52 156.688,63.881C159.798,61.773 161.163,62.211 161.163,62.211C162.052,64.454 161.493,66.11 161.326,66.522C162.37,67.661 163,69.115 163,70.893C163,77.151 159.191,78.528 155.563,78.931C156.147,79.434 156.668,80.428 156.668,81.948C156.668,84.126 156.648,85.883 156.648,86.417C156.648,86.852 156.942,87.359 157.768,87.2C164.236,85.042 168.899,78.94 168.899,71.746C168.899,62.748 161.605,55.455 152.608,55.455Z" style="fill-opacity:0.8;"/>
        </g>
    </g>
    <style>
      #buttonSurface {
        fill: rgb(157,192,244);
      }
      svg:hover #buttonSurface {
        fill: rgb(194,218,255);
      }
    </style>
    <a xmlns="http://www.w3.org/2000/svg" id="anchor" xlink:href="https://github.com/andychri" xmlns:xlink="http://www.w3.org/1999/xlink" target="_top">
        <rect x="0" y="0" width="100%" height="100%" fill-opacity="0"/>
    </a>
</svg>
